<?xml version="1.0" standalone="no"?>
<!DOCTYPE svg PUBLIC "-//W3C//DTD SVG 1.1//EN" "http://www.w3.org/Graphics/SVG/1.1/DTD/svg11.dtd" >
<svg xmlns="http://www.w3.org/2000/svg" xmlns:xlink="http://www.w3.org/1999/xlink" version="1.1">
<metadata></metadata>
<defs>
<font id="helveticaneueltstdcn57Cn" horiz-adv-x="909" >
<font-face units-per-em="2048" ascent="1462" descent="-586" />
<missing-glyph horiz-adv-x="491" />
<glyph horiz-adv-x="0" />
<glyph unicode="&#xd;" horiz-adv-x="0" />
<glyph horiz-adv-x="0" />
<glyph horiz-adv-x="0" />
<glyph unicode=" "  horiz-adv-x="491" />
<glyph unicode="&#x09;" horiz-adv-x="491" />
<glyph unicode="&#xa0;" horiz-adv-x="491" />
<glyph unicode="!" horiz-adv-x="528" d="M170 0v197h188v-197h-188zM170 1462h188l-32 -1081h-123z" />
<glyph unicode="&#x22;" horiz-adv-x="833" d="M178 942v520h135v-520h-135zM520 942v520h135v-520h-135z" />
<glyph unicode="#" horiz-adv-x="983" d="M47 420v135h184l39 315h-178v136h197l51 415h135l-51 -415h217l51 415h135l-51 -415h160v-136h-178l-39 -315h170v-135h-187l-53 -420h-135l53 420h-217l-53 -420h-135l53 420h-168zM367 555h217l39 315h-217z" />
<glyph unicode="$" horiz-adv-x="983" d="M43 446h180q0 -55 4 -110t25.5 -101.5t67 -77t124.5 -38.5v536q-70 23 -138 48.5t-122.5 69.5t-88.5 111.5t-34 172.5q0 49 13.5 113.5t54.5 124t117 103.5t198 52v119h86v-119q188 -10 276.5 -109.5t92.5 -287.5h-180q0 100 -41 169.5t-148 80.5v-502q70 -25 144 -49.5 t132 -66.5t96 -110.5t38 -179.5q0 -115 -37 -193.5t-95 -127.5t-131 -73t-147 -28v-192h-86v192q-117 4 -193.5 38t-122.5 93.5t-65.5 145.5t-19.5 196zM250 1075q0 -104 55 -158.5t139 -87.5v474q-94 -12 -144 -69.5t-50 -158.5zM530 119q96 8 159 74.5t63 173.5 q0 57 -17.5 98t-47.5 71.5t-71 52t-86 38.5v-508z" />
<glyph unicode="%" horiz-adv-x="1554" d="M94 1057q0 76 7.5 147.5t35 125.5t80.5 87t145 33t145.5 -33t81 -87t35 -125.5t7.5 -147.5q0 -78 -7.5 -148.5t-35 -125t-81 -87t-145.5 -32.5t-145 32.5t-80.5 87t-35 125t-7.5 148.5zM242 1057q0 -63 3 -115.5t14 -89.5t35.5 -57.5t67.5 -20.5t68 20.5t36 57.5t14 89 t3 116q0 63 -3 115.5t-14 89t-35.5 57t-68.5 20.5q-43 0 -67.5 -20.5t-35.5 -57t-14 -89t-3 -115.5zM381 -27l635 1477h143l-635 -1477h-143zM924 365q0 76 7 147.5t34.5 125.5t81 87t145.5 33t145.5 -33t81 -87t34.5 -126t7 -147q0 -78 -7 -149t-34.5 -124t-81 -86 t-145.5 -33t-145.5 33t-81 86t-34.5 124t-7 149zM1071 365q0 -63 3 -115.5t14.5 -89.5t36 -57.5t67.5 -20.5t67.5 20.5t36 57.5t14.5 89t3 116q0 63 -3 115t-14.5 89t-36 57.5t-67.5 20.5t-67.5 -20.5t-36 -57.5t-14.5 -89t-3 -115z" />
<glyph unicode="&#x26;" horiz-adv-x="1138" d="M51 377q0 115 53.5 213t145.5 166l106 80l-45 73q-39 63 -72.5 126t-33.5 141q0 63 23.5 116.5t65.5 91t97 58t117 20.5q139 0 224 -64.5t85 -213.5q0 -53 -17.5 -98.5t-45 -84t-64.5 -72.5t-74 -65l-53 -45l289 -413q23 55 36 120.5t21 163.5h160q0 -41 -11 -102.5 t-27.5 -124t-38 -117.5t-42.5 -82l189 -264h-195l-98 137q-43 -41 -82 -70.5t-81 -51t-90 -32t-108 -10.5q-133 0 -218 44t-133 107.5t-65.5 133.5t-17.5 119zM231 391q0 -68 21.5 -118t58.5 -84.5t86 -52t103 -17.5q86 0 147.5 41t114.5 100l-322 465q-88 -53 -148.5 -135 t-60.5 -199zM365 1184q0 -49 26.5 -103.5t61.5 -103.5l34 -49l39 37q49 47 90 96t41 123q0 63 -41 103t-106 40q-66 0 -105.5 -40t-39.5 -103z" />
<glyph unicode="'" horiz-adv-x="491" d="M178 942v520h135v-520h-135z" />
<glyph unicode="(" horiz-adv-x="493" d="M88 543q0 246 76 482.5t223 436.5h98q-125 -205 -175 -442.5t-50 -476.5q0 -250 55.5 -473.5t169.5 -444.5h-98q-145 199 -222 436.5t-77 481.5z" />
<glyph unicode=")" horiz-adv-x="493" d="M8 -375q125 205 175 441.5t50 476.5q0 250 -55 474t-170 445h98q145 -199 222.5 -437.5t77.5 -481.5q0 -246 -76 -481.5t-224 -436.5h-98z" />
<glyph unicode="*" horiz-adv-x="720" d="M35 1184l45 119l219 -84v243h123v-243l219 84l45 -119l-231 -70l155 -192l-102 -76l-148 209l-147 -209l-102 76l155 192z" />
<glyph unicode="+" horiz-adv-x="1228" d="M96 451v135h451v450h135v-450h451v-135h-451v-451h-135v451h-451z" />
<glyph unicode="," horiz-adv-x="491" d="M152 0v217h188v-178q0 -57 -5 -111.5t-23.5 -98.5t-56.5 -78t-103 -52v96q53 27 71.5 61.5t18.5 96.5v47h-90z" />
<glyph unicode="-" horiz-adv-x="720" d="M111 502v160h499v-160h-499z" />
<glyph unicode="." horiz-adv-x="491" d="M152 0v217h188v-217h-188z" />
<glyph unicode="/" horiz-adv-x="569" d="M-18 -27l473 1518h135l-475 -1518h-133z" />
<glyph unicode="0" horiz-adv-x="983" d="M78 705q0 80 3 165.5t16.5 168.5t40 158t72.5 131t114.5 89t167.5 33q147 0 230 -66.5t124 -173t50 -239.5t9 -266q0 -78 -3 -162t-16.5 -165t-40 -154.5t-72.5 -129t-114.5 -88.5t-166.5 -33q-147 0 -230.5 65.5t-124.5 171t-50 235.5t-9 260zM258 705q0 -115 5 -222.5 t28.5 -191.5t70 -134.5t130.5 -50.5q82 0 129 50.5t70.5 134.5t28.5 191.5t5 222.5q0 119 -5 229t-28.5 195t-71 135.5t-128.5 50.5q-84 0 -130.5 -50.5t-70 -135.5t-28.5 -195t-5 -229z" />
<glyph unicode="1" horiz-adv-x="983" d="M137 1090v122q68 4 131.5 12.5t112.5 33t80 69.5t35 123h122v-1450h-172v1090h-309z" />
<glyph unicode="2" horiz-adv-x="983" d="M86 0q0 100 25.5 187t69.5 160t100.5 134.5t117.5 112.5l119 100q43 37 79 74t61.5 78t39 89t13.5 107q0 47 -11.5 93.5t-36 83t-65.5 60.5t-98 24q-84 0 -130 -38t-68.5 -88.5t-27 -103.5t-4.5 -84h-180q0 102 22.5 187.5t71.5 145.5t128 94t190 34q125 0 201.5 -43 t118.5 -103.5t55.5 -127t13.5 -113.5q0 -84 -17.5 -148.5t-49 -121t-79 -106.5t-108.5 -101l-205 -178q-59 -53 -100 -115t-58 -133h623v-160h-811z" />
<glyph unicode="3" horiz-adv-x="983" d="M80 375v18h180q0 -49 13.5 -100t41 -93t71.5 -68t106 -26q39 0 80.5 12.5t74.5 45.5t54.5 91t21.5 151q0 129 -63.5 202.5t-198.5 73.5h-92v135h90q115 0 168 74t53 182q0 49 -10.5 93t-32 77t-58 52.5t-87.5 19.5q-72 0 -113 -30t-62.5 -73t-27.5 -92t-6 -88h-181 q0 92 22.5 169t70 132.5t120 86t172.5 30.5q113 0 185.5 -36t114.5 -91t57.5 -121.5t15.5 -128.5q0 -111 -55 -196.5t-170 -114.5v-4q123 -25 195.5 -106t72.5 -232q0 -98 -25.5 -181t-75.5 -141.5t-128 -91.5t-182 -33q-98 0 -166 26t-114 64.5t-72.5 87t-40 92.5 t-16.5 79.5t-3 52.5z" />
<glyph unicode="4" horiz-adv-x="983" d="M61 350v162l525 938h172v-952h164v-148h-164v-350h-172v350h-525zM217 498h369v669h-4z" />
<glyph unicode="5" horiz-adv-x="983" d="M82 373h180q0 -29 7 -74t31 -88t68 -74t115 -31q76 0 123 38t73 95.5t34 123t8 120.5q0 59 -12.5 119t-40 106t-74.5 74.5t-115 28.5q-47 0 -85 -17.5t-64.5 -40t-41 -47t-14.5 -36.5l-155 8l80 743h647v-159h-510l-57 -420l4 -4q45 53 112.5 80.5t141.5 27.5 q164 0 264 -124t100 -353q0 -102 -23.5 -192.5t-73.5 -158t-131 -106.5t-194 -39q-129 0 -206.5 46.5t-120.5 110t-56.5 132t-13.5 111.5z" />
<glyph unicode="6" horiz-adv-x="983" d="M72 659q0 82 3 173.5t17 179.5t42 168t77 139t123 95t178 36q127 0 199.5 -45t109.5 -103.5t47.5 -117t10.5 -82.5h-181q0 92 -49 152.5t-141 60.5q-90 0 -141.5 -57.5t-77 -132t-31.5 -146.5t-6 -100v-115h4q10 20 32.5 48t56.5 53.5t81 43t106 17.5q94 0 165 -34 t119 -94.5t71.5 -144.5t23.5 -186q0 -104 -25.5 -195.5t-77.5 -157t-129 -103.5t-177 -38t-171 30t-119 81t-75.5 119.5t-42 144.5t-18.5 156t-4 155zM272 442q0 -57 10.5 -116.5t37 -108.5t70.5 -80t112 -31t111.5 31t70.5 80t37 108.5t10 116.5t-9 116.5t-33.5 109t-70 80 t-116.5 30.5q-72 0 -117 -30.5t-69.5 -80t-34 -109t-9.5 -116.5z" />
<glyph unicode="7" horiz-adv-x="983" d="M78 1262v159h827v-149q-59 -78 -138 -206t-146 -292q-70 -168 -124.5 -359.5t-74.5 -414.5h-201q20 166 65.5 332t110.5 327q66 160 152 311.5t192 291.5h-663z" />
<glyph unicode="8" horiz-adv-x="983" d="M76 399q0 289 256 373q-111 45 -161 119t-50 190q0 176 98 272.5t273 96.5q174 0 272 -96.5t98 -272.5q0 -117 -50 -190.5t-161 -118.5q256 -84 256 -373q0 -72 -19.5 -147.5t-66.5 -137t-127 -101.5t-202 -40q-123 0 -203 40t-127 101.5t-66.5 137t-19.5 147.5zM256 406 q0 -63 13.5 -119t42 -95.5t72.5 -62.5t108 -23q63 0 107 23t72.5 62.5t42 95t13.5 119.5q0 63 -13.5 118.5t-42 95t-72.5 62.5t-107 23t-107.5 -23t-73 -62.5t-42 -95t-13.5 -118.5zM301 1077q0 -102 45 -169.5t146 -67.5q98 0 144 67.5t46 169.5q0 104 -46 171t-144 67 q-100 0 -145.5 -66.5t-45.5 -171.5z" />
<glyph unicode="9" horiz-adv-x="983" d="M72 954q0 104 25.5 195.5t77.5 158t128 104.5t178 38q100 0 171 -30.5t119 -82t75.5 -120t42 -144.5t18.5 -156.5t4 -154.5q0 -82 -3 -173t-17 -179t-42 -167t-77 -138.5t-123 -95.5t-178 -36q-84 0 -144.5 20.5t-101.5 54.5t-64.5 74t-35.5 78t-16.5 70.5t-4.5 48.5h181 q0 -90 49 -151.5t141 -61.5q90 0 141.5 57.5t77 133.5t31.5 146.5t6 99.5v114h-4q-10 -20 -32.5 -47.5t-56.5 -53.5t-81 -43t-106 -17q-94 0 -165 33.5t-119 94t-71.5 144.5t-23.5 186zM252 979q0 -57 9 -116.5t33.5 -108.5t70 -80t116.5 -31q72 0 117 31t69.5 80t34 108.5 t9.5 116.5t-10.5 116.5t-37 108.5t-70.5 80t-112 31t-111.5 -31t-70.5 -80t-37 -108.5t-10 -116.5z" />
<glyph unicode=":" horiz-adv-x="491" d="M152 0v217h188v-217h-188zM152 819v217h188v-217h-188z" />
<glyph unicode=";" horiz-adv-x="491" d="M152 0v217h188v-178q0 -57 -5 -111.5t-23.5 -98.5t-56.5 -78t-103 -52v96q53 27 71.5 61.5t18.5 96.5v47h-90zM152 819v217h188v-217h-188z" />
<glyph unicode="&#x3c;" horiz-adv-x="1228" d="M96 457v123l1037 473v-135l-877 -400l877 -399v-133z" />
<glyph unicode="=" horiz-adv-x="1228" d="M96 242v135h1037v-135h-1037zM96 659v136h1037v-136h-1037z" />
<glyph unicode="&#x3e;" horiz-adv-x="1228" d="M96 -14v133l877 399l-877 400v135l1037 -473v-123z" />
<glyph unicode="?" d="M72 1032q0 90 22.5 171t68.5 142.5t118.5 97.5t171.5 36q92 0 163.5 -30t120.5 -81t75 -121.5t26 -152.5q0 -78 -27 -154t-76 -135q-8 -10 -31.5 -36t-49 -55.5t-49 -55t-30.5 -33.5q-39 -49 -52 -103.5t-13 -101.5v-39h-160q0 61 5 129t34 123q18 33 46 69.5t57.5 71.5 t57.5 66.5t46 54.5q35 47 48 93t13 116q0 45 -12 86t-36.5 72.5t-62.5 50t-87 18.5q-74 0 -117 -32.5t-64.5 -78.5t-27.5 -98.5t-6 -89.5h-172zM338 0v197h188v-197h-188z" />
<glyph unicode="@" horiz-adv-x="1638" d="M59 731q0 158 59.5 296t163 241.5t242 163t295.5 59.5q166 0 305.5 -47t240.5 -131t157.5 -201t56.5 -254q0 -133 -48 -239.5t-125 -182.5t-171 -115.5t-184 -39.5q-61 0 -98.5 28.5t-45.5 91.5h-4q-47 -49 -106.5 -84.5t-149.5 -35.5q-55 0 -108.5 22.5t-93 62.5 t-64.5 97t-25 125q0 106 34 209.5t97.5 185.5t151.5 132t197 50q76 0 138 -36.5t95 -131.5h4l45 129h115l-172 -577q-8 -27 -13.5 -48.5t-5.5 -43.5q0 -23 15.5 -38.5t44.5 -15.5q70 0 132 38t108.5 100.5t74 142.5t27.5 166q0 117 -48 212t-133 162.5t-199 105.5t-245 38 q-133 0 -246.5 -49t-197.5 -135t-132 -202t-48 -251q0 -137 48 -254t132 -202t197.5 -133t246.5 -48q190 0 330.5 57.5t224.5 170.5h129q-98 -170 -272 -259.5t-412 -89.5q-158 0 -296 59.5t-241.5 162t-163 240.5t-59.5 296zM492 600q0 -86 54 -141.5t138 -55.5 q72 0 130 46.5t100 113t64.5 141t22.5 134.5q0 35 -11 70.5t-32.5 65.5t-52.5 49t-69 19q-74 0 -137.5 -42t-109.5 -107.5t-71.5 -143t-25.5 -149.5z" />
<glyph unicode="A" horiz-adv-x="1024" d="M-14 0l420 1462h241l393 -1462h-188l-104 401h-467l-109 -401h-186zM317 549h394l-187 706h-4z" />
<glyph unicode="B" horiz-adv-x="1062" d="M119 0v1462h448q72 0 139.5 -18.5t120 -62.5t84 -115.5t31.5 -178.5q0 -49 -14.5 -98t-42 -90t-67.5 -71.5t-89 -45.5v-4q135 -33 197.5 -129t62.5 -231q0 -223 -122 -320.5t-351 -97.5h-397zM299 147h246q72 0 121 23t78.5 59.5t43 86t13.5 102.5q0 76 -22.5 128 t-61.5 86t-91.5 49t-111.5 15h-215v-549zM299 831h207q29 0 70.5 6.5t81.5 31t68 73.5t28 133q0 115 -59.5 177.5t-192.5 62.5h-203v-484z" />
<glyph unicode="C" horiz-adv-x="1062" d="M98 731q0 137 16.5 273.5t67.5 245t143.5 175t243.5 66.5q223 0 324.5 -120t107.5 -335h-188q-2 61 -14.5 117.5t-40 98.5t-73.5 66.5t-116 24.5q-94 0 -149 -48t-85 -131t-39 -194.5t-9 -238.5t9 -238.5t39 -194.5t85 -131t149 -48q82 0 131.5 34.5t77 90t36.5 123 t11 135.5h189q-6 -104 -32 -199.5t-77 -168.5t-134 -117t-202 -44q-156 0 -249 66.5t-142 174.5t-64.5 243t-15.5 274z" />
<glyph unicode="D" horiz-adv-x="1138" d="M137 0v1462h391q170 0 271.5 -57t155 -156.5t69.5 -232.5t16 -285q0 -139 -20.5 -270t-75.5 -233.5t-151.5 -165t-245.5 -62.5h-410zM317 147h189q117 0 185.5 54.5t104 138.5t46 187.5t10.5 201.5q0 106 -8 210.5t-42 187.5t-103.5 135.5t-192.5 52.5h-189v-1168z" />
<glyph unicode="E" horiz-adv-x="948" d="M119 0v1462h755v-159h-575v-459h543v-160h-543v-524h600v-160h-780z" />
<glyph unicode="F" d="M119 0v1462h755v-159h-575v-459h543v-160h-543v-684h-180z" />
<glyph unicode="G" horiz-adv-x="1099" d="M98 731q0 137 16.5 273.5t67.5 245t143.5 175t243.5 66.5q104 0 177 -26.5t121 -68.5t75 -93.5t40 -99.5t16 -88t3 -58h-188q-4 57 -17.5 109.5t-41 91t-72.5 62t-113 23.5q-94 0 -149 -48t-85 -131t-39 -194.5t-9 -238.5t9 -238.5t39 -194.5t85 -131t149 -48t147.5 50 t80 124t34 160t7.5 159h-289v148h452v-760h-135v199h-4q-29 -94 -111.5 -160t-203.5 -66q-143 0 -231.5 63.5t-136.5 168t-64.5 242t-16.5 284.5z" />
<glyph unicode="H" horiz-adv-x="1099" d="M119 0v1462h180v-598h502v598h180v-1462h-180v705h-502v-705h-180z" />
<glyph unicode="I" horiz-adv-x="417" d="M119 0v1462h180v-1462h-180z" />
<glyph unicode="J" horiz-adv-x="872" d="M45 305v121h172v-107q0 -90 38 -145t130 -55q61 0 98 19.5t57.5 58.5t26.5 96t6 133v1036h181v-1042q0 -98 -15.5 -180t-55.5 -141.5t-111.5 -92.5t-184.5 -33q-92 0 -156.5 27t-105.5 73t-60.5 106.5t-19.5 125.5z" />
<glyph unicode="K" horiz-adv-x="1024" d="M119 0v1462h180v-708h4l506 708h201l-443 -610l480 -852h-201l-395 705l-152 -207v-498h-180z" />
<glyph unicode="L" d="M119 0v1462h180v-1302h594v-160h-774z" />
<glyph unicode="M" horiz-adv-x="1441" d="M123 0v1462h303l293 -1159h4l293 1159h303v-1462h-180v1278h-4l-324 -1278h-180l-324 1278h-4v-1278h-180z" />
<glyph unicode="N" horiz-adv-x="1138" d="M119 0v1462h233l484 -1220h4v1220h180v-1462h-248l-469 1184h-4v-1184h-180z" />
<glyph unicode="O" horiz-adv-x="1138" d="M98 731q0 137 16.5 273.5t67.5 245t143 175t244 66.5t244 -66.5t143.5 -175t67.5 -245t16 -273.5q0 -139 -16 -274t-67.5 -243t-143.5 -174.5t-244 -66.5t-244 66.5t-143 174.5t-67.5 243t-16.5 274zM287 731q0 -127 9 -238.5t39 -194.5t85 -131t149 -48t149.5 48 t85.5 131t39 194.5t9 238.5t-9 238.5t-39 194.5t-85.5 131t-149.5 48t-149 -48t-85 -131t-39 -194.5t-9 -238.5z" />
<glyph unicode="P" horiz-adv-x="985" d="M119 0v1462h373q31 0 76.5 -2t96 -13t100.5 -37t90 -73t64.5 -118.5t24.5 -176.5q0 -102 -30.5 -181t-87 -133t-134.5 -82t-170 -28h-223v-618h-180zM299 766h215q98 0 170 69.5t72 215.5q0 121 -59.5 192.5t-194.5 71.5h-203v-549z" />
<glyph unicode="Q" horiz-adv-x="1138" d="M98 731q0 137 16.5 273.5t67.5 245t143.5 175t243.5 66.5q152 0 244 -66.5t143.5 -175t67.5 -245t16 -273.5q0 -80 -5 -158.5t-18 -153.5t-36 -142.5t-59 -122.5l147 -136l-100 -104l-148 131q-47 -35 -110.5 -53.5t-141.5 -18.5q-152 0 -244 66.5t-143 174.5t-67.5 243 t-16.5 274zM287 731q0 -127 9 -238.5t39 -194.5t85 -131t149 -48q80 0 133 35l-141 127l101 110l135 -123q35 84 45 203t10 260q0 127 -9 238.5t-39 194.5t-85 131t-150 48q-94 0 -149 -48t-85 -131t-39 -194.5t-9 -238.5z" />
<glyph unicode="R" horiz-adv-x="1062" d="M119 0v1462h473q174 0 274.5 -96t100.5 -270q0 -59 -11.5 -118.5t-38 -110t-69.5 -88.5t-107 -52v-4q96 -10 149.5 -80t57.5 -164l13 -250q2 -61 9 -100t16 -64.5t22.5 -40t29.5 -24.5h-217q-12 12 -20 35.5t-14.5 54.5t-9.5 62.5t-5 58.5l-12 227q-4 76 -25.5 118 t-52.5 63.5t-67.5 26.5t-71.5 5h-244v-651h-180zM299 799h178q39 0 91.5 4t99.5 30.5t78.5 84t31.5 163.5q0 109 -68.5 171.5t-195.5 62.5h-215v-516z" />
<glyph unicode="S" horiz-adv-x="1024" d="M63 459h181q0 -61 6 -122t32.5 -110t82 -78.5t153.5 -29.5q53 0 100.5 18.5t81 52t53 80.5t19.5 107q0 78 -29.5 127t-78 83t-110.5 55.5t-127 44t-127 50t-110.5 71.5t-78 111.5t-29.5 167.5q0 51 14.5 120t60.5 132.5t130 107.5t223 44q211 0 308 -102.5t102 -305.5 h-181q0 57 -11 105.5t-37.5 82.5t-71 53t-107.5 19q-115 0 -178.5 -60t-63.5 -177q0 -102 51.5 -157.5t128 -88.5t166 -58.5t166 -68.5t128 -118.5t51.5 -208.5q0 -127 -42 -210t-108 -132.5t-146.5 -70t-158.5 -20.5q-129 0 -214 32t-135.5 94.5t-72 152.5t-21.5 207z" />
<glyph unicode="T" horiz-adv-x="948" d="M16 1303v159h916v-159h-369v-1303h-180v1303h-367z" />
<glyph unicode="U" horiz-adv-x="1062" d="M102 434v1028h181v-1028q0 -162 56 -238.5t191 -76.5q143 0 196.5 81t53.5 234v1028h181v-1028q0 -211 -108 -336t-323 -125q-221 0 -324.5 117t-103.5 344z" />
<glyph unicode="V" horiz-adv-x="946" d="M-2 1462h186l287 -1255h4l287 1255h188l-368 -1462h-230z" />
<glyph unicode="W" horiz-adv-x="1478" d="M16 1462h181l223 -1196h4l207 1196h217l207 -1196h4l223 1196h180l-301 -1462h-219l-201 1184h-4l-211 -1184h-219z" />
<glyph unicode="X" horiz-adv-x="985" d="M4 0l389 743l-360 719h200l267 -547l268 547h188l-364 -719l389 -743h-201l-291 586l-296 -586h-189z" />
<glyph unicode="Y" horiz-adv-x="946" d="M-2 1462h197l278 -684l289 684h188l-387 -889v-573h-180v573z" />
<glyph unicode="Z" horiz-adv-x="948" d="M47 0v152l658 1151h-621v159h809v-166l-657 -1136h665v-160h-854z" />
<glyph unicode="[" horiz-adv-x="530" d="M160 -375v1837h366v-135h-207v-1567h207v-135h-366z" />
<glyph unicode="\" horiz-adv-x="569" d="M-18 1491h133l475 -1518h-135z" />
<glyph unicode="]" horiz-adv-x="530" d="M4 -240h207v1567h-207v135h367v-1837h-367v135z" />
<glyph unicode="^" horiz-adv-x="1228" d="M96 535l469 886h99l469 -886h-136l-383 739l-383 -739h-135z" />
<glyph unicode="_" horiz-adv-x="1024" d="M0 -152h1024v-102h-1024v102z" />
<glyph unicode="`" horiz-adv-x="417" d="M-31 1540h199l143 -291h-123z" />
<glyph unicode="a" d="M59 291q0 117 50.5 193.5t156.5 109.5l232 70q47 14 72.5 28.5t36.5 33.5t13.5 44t2.5 59q0 78 -45.5 120t-131.5 42q-72 0 -109.5 -27.5t-55 -64.5t-20.5 -72.5t-3 -50.5v-10h-172q0 186 86 273t283 87q125 0 192.5 -32.5t99 -81.5t36.5 -103.5t5 -97.5v-612 q0 -35 6.5 -61.5t47.5 -26.5q16 0 25.5 3t15.5 7v-121q-10 -2 -39 -6t-62 -4q-25 0 -51 2t-47.5 15t-38 41t-18.5 81h-4q-41 -74 -114 -115t-151 -41q-154 0 -226.5 85t-72.5 233zM240 295q0 -84 33.5 -136.5t121.5 -52.5q43 0 83 16.5t71 45.5t49 66.5t18 80.5v283 q-25 -25 -62.5 -42t-78.5 -30.5t-82 -26t-69 -30.5q-41 -27 -62.5 -64.5t-21.5 -109.5z" />
<glyph unicode="b" horiz-adv-x="948" d="M113 0v1462h172v-489h4q29 72 99.5 112.5t154.5 40.5q111 0 177 -58t101 -144t45.5 -187.5t10.5 -187.5q0 -117 -20.5 -221.5t-63.5 -183t-112 -125t-163 -46.5q-45 0 -84 13.5t-70.5 37t-53 52t-29.5 59.5h-5v-135h-163zM274 549q0 -84 8.5 -162t33 -137.5t67.5 -95 t113 -35.5q59 0 98 31.5t61.5 89t31.5 136.5t9 173q0 98 -9 178t-31.5 135.5t-61.5 86t-98 30.5q-70 0 -113 -37t-67.5 -98.5t-33 -138t-8.5 -156.5z" />
<glyph unicode="c" horiz-adv-x="872" d="M66 535q0 102 13 207.5t55 190.5t119 139t204 54q113 0 181.5 -38.5t106 -95t50 -119t12.5 -109.5h-172q0 39 -9.5 80t-28.5 73.5t-53 53t-83 20.5q-41 0 -79 -14t-68.5 -62.5t-49 -138.5t-18.5 -239q0 -53 3 -127t23.5 -141.5t62.5 -115t120 -47.5q55 0 90 27t55.5 67 t27.5 88t7 93h172q0 -66 -17.5 -137.5t-59.5 -132t-111.5 -99.5t-172.5 -39q-203 0 -291.5 138.5t-88.5 423.5z" />
<glyph unicode="d" horiz-adv-x="948" d="M72 549q0 86 10 187.5t46 187.5t104.5 144t185.5 58q74 0 143.5 -41t97.5 -112h5v489h172v-1462h-164v135h-4q-8 -31 -30 -59.5t-53.5 -52t-70.5 -37t-84 -13.5q-98 0 -165.5 41t-110.5 117t-62.5 182.5t-19.5 235.5zM252 549q0 -98 9 -178t31.5 -135.5t61.5 -86 t99 -30.5q72 0 114.5 31.5t66 89t32 136.5t8.5 173q0 80 -8.5 156.5t-33 138t-67.5 98.5t-112 37q-59 0 -98.5 -30.5t-62 -86t-31.5 -135.5t-9 -178z" />
<glyph unicode="e" d="M76 535q0 102 13 207.5t55 190.5t119 139t204 54q125 0 198.5 -49t110.5 -126t47.5 -171t10.5 -182v-70h-578q0 -63 3 -137t23.5 -137.5t62.5 -105.5t122 -42q61 0 98 28t56.5 68t25.5 84t6 74h172q0 -43 -15 -109.5t-56 -128t-113 -105.5t-184 -44q-203 0 -292 138.5 t-89 423.5zM262 664h391v59q0 45 -8 93t-29.5 87t-58.5 63.5t-94 24.5q-68 0 -108 -35.5t-60.5 -83t-26.5 -95.5t-6 -72v-41z" />
<glyph unicode="f" horiz-adv-x="530" d="M4 963v135h160v129q0 125 56 188.5t181 63.5h125v-148h-80q-55 0 -82.5 -23.5t-27.5 -80.5v-129h188v-135h-188v-963h-172v963h-160z" />
<glyph unicode="g" horiz-adv-x="948" d="M72 549q0 111 16 215t58 185t111 129t173 48q90 0 155.5 -51t82.5 -117h4v140h164v-1028q0 -123 -28 -207t-77 -137.5t-117.5 -77t-150.5 -23.5q-25 0 -81 4t-114.5 30t-106.5 82t-59 159h172q6 -76 57.5 -108t119.5 -32q82 0 126 28t63 67t21.5 79.5t2.5 69.5v143h-5 q-29 -70 -97 -108.5t-150 -38.5q-80 0 -136.5 30.5t-94.5 80t-59.5 110t-32.5 121.5t-14 115.5t-3 91.5zM252 549q0 -68 7 -138.5t27.5 -129t59.5 -96.5t105 -38q70 0 113.5 31t68 85t33 128t8.5 158q0 80 -8.5 156.5t-33 138t-67 98.5t-112.5 37q-59 0 -98.5 -30.5t-62 -86 t-31.5 -135.5t-9 -178z" />
<glyph unicode="h" horiz-adv-x="948" d="M113 0v1462h172v-489h4q16 33 46 61.5t65.5 49t75.5 31.5t77 11q106 0 163.5 -35.5t84 -89t31 -114t4.5 -109.5v-778h-172v758q0 31 -3.5 69.5t-19.5 72.5t-49 56.5t-90 22.5q-35 0 -73 -12.5t-70.5 -39t-53 -68.5t-20.5 -101v-758h-172z" />
<glyph unicode="i" horiz-adv-x="417" d="M123 0v1098h172v-1098h-172zM123 1266v196h172v-196h-172z" />
<glyph unicode="j" horiz-adv-x="417" d="M-45 -221q16 -2 31.5 -4t29.5 -2q39 0 61.5 14t32 38.5t11.5 58.5t2 73v1141h172v-1202q0 -135 -60.5 -203t-201.5 -68q-20 0 -39 2t-39 4v148zM123 1266v196h172v-196h-172z" />
<glyph unicode="k" d="M113 0v1462h172v-870h4l385 506h200l-333 -414l391 -684h-201l-305 543l-141 -172v-371h-172z" />
<glyph unicode="l" horiz-adv-x="417" d="M123 0v1462h172v-1462h-172z" />
<glyph unicode="m" horiz-adv-x="1478" d="M129 0v1098h164v-129h4q35 76 110.5 116.5t155.5 40.5q96 0 153.5 -39.5t84.5 -134.5q37 72 105.5 123t154.5 51q109 0 167 -35.5t85.5 -89t32 -114t4.5 -109.5v-778h-172v758q0 31 -3.5 69.5t-17.5 72.5t-44 56.5t-83 22.5q-31 0 -66.5 -10.5t-66.5 -36t-51.5 -68.5 t-20.5 -106v-758h-172v758q0 31 -3 69.5t-17.5 72.5t-44 56.5t-82.5 22.5q-31 0 -67 -10.5t-66.5 -36t-51 -68.5t-20.5 -106v-758h-172z" />
<glyph unicode="n" horiz-adv-x="948" d="M113 0v1098h163v-129h5q35 76 110.5 116.5t155.5 40.5q109 0 167 -35.5t85.5 -89t32 -114t4.5 -109.5v-778h-172v758q0 31 -3.5 69.5t-19.5 72.5t-49 56.5t-90 22.5q-35 0 -73 -12.5t-70.5 -39t-53 -68.5t-20.5 -101v-758h-172z" />
<glyph unicode="o" d="M59 549q0 117 17.5 221t61.5 183t121 126t196 47t195.5 -47t120.5 -126t61.5 -183t17.5 -221t-17.5 -221.5t-62.5 -183t-121 -125t-194 -46.5q-119 0 -196 46.5t-121 125t-61.5 183t-17.5 221.5zM240 549q0 -90 8 -170t30.5 -140.5t64.5 -96.5t108 -36q68 0 110.5 36 t67 96.5t33 140.5t8.5 170q0 88 -8.5 169t-32 141.5t-66.5 96t-112 35.5q-66 0 -107 -35.5t-64.5 -96t-31.5 -141.5t-8 -169z" />
<glyph unicode="p" horiz-adv-x="948" d="M113 -358v1456h163v-135h5q8 31 29.5 60.5t53 52t70.5 36.5t84 14q98 0 166 -41t111 -114.5t62.5 -176t19.5 -225.5q0 -94 -16.5 -198.5t-56.5 -192.5t-109.5 -146.5t-176.5 -58.5q-74 0 -137.5 40t-91.5 112h-4v-483h-172zM274 549q0 -80 8.5 -157t33 -138t67.5 -98 t113 -37q119 0 159.5 118.5t40.5 331.5q0 90 -9 166t-31.5 130.5t-61.5 84t-98 29.5q-72 0 -115 -32t-66.5 -89t-32 -136t-8.5 -173z" />
<glyph unicode="q" horiz-adv-x="948" d="M72 569q0 123 19.5 225.5t62.5 176t110.5 114.5t165.5 41q45 0 84 -14t70.5 -36.5t53 -52.5t30.5 -60h4v135h164v-1456h-172v483h-5q-29 -72 -92 -112t-137 -40q-106 0 -176 51.5t-110 135.5t-56 190.5t-16 218.5zM252 569q0 -106 9 -189t31.5 -141.5t61.5 -89t99 -30.5 q70 0 112.5 37t67 98t33 138t8.5 157q0 94 -8.5 173t-32 136t-66.5 89t-114 32q-59 0 -98.5 -29.5t-62 -84t-31.5 -130.5t-9 -166z" />
<glyph unicode="r" horiz-adv-x="606" d="M113 0v1098h172v-164h4q18 39 40.5 73.5t50.5 61.5t63.5 42t82.5 15q51 0 76 -12v-168q-12 2 -31.5 5t-60.5 3q-33 0 -72 -15t-72.5 -47t-57 -81t-23.5 -117v-694h-172z" />
<glyph unicode="s" horiz-adv-x="833" d="M51 360h172q0 -49 8.5 -95t31 -82t62.5 -56.5t103 -20.5q20 0 51 6.5t60.5 27t50 55t20.5 94.5q0 55 -23.5 91t-61.5 59.5t-86 40t-97 32.5t-98 35.5t-87 52.5t-61.5 85t-23.5 138q0 76 27.5 133.5t75.5 95.5t111.5 56t135.5 18q119 0 186.5 -36.5t99 -90t40 -114 t8.5 -109.5h-172q0 104 -34 159.5t-128 55.5q-20 0 -51 -5t-58.5 -21.5t-48 -50t-20.5 -91.5q0 -49 23.5 -79.5t61.5 -51t86 -36t99 -31.5q49 -16 97 -37t86 -53.5t61.5 -85t23.5 -134.5q0 -86 -26.5 -150.5t-73.5 -107.5t-112.5 -63.5t-141.5 -20.5q-139 0 -216 45 t-113 106.5t-42 127t-6 108.5z" />
<glyph unicode="t" horiz-adv-x="530" d="M4 963v135h160v319h172v-319h190v-135h-190v-705q0 -66 22.5 -94.5t90.5 -28.5q29 0 45 2t30 4v-141q-16 -2 -51 -6t-88 -4q-68 0 -111 13t-67.5 40t-33.5 68t-9 94v758h-160z" />
<glyph unicode="u" horiz-adv-x="948" d="M113 319v779h172v-758q0 -31 3 -70t19.5 -72.5t48 -56t90.5 -22.5q35 0 73 12t71 39t53.5 69t20.5 101v758h172v-1098h-164v129h-4q-35 -76 -111 -116t-156 -40q-109 0 -167 36t-85.5 89.5t-31.5 112.5t-4 108z" />
<glyph unicode="v" horiz-adv-x="831" d="M20 1098h189l205 -881h4l205 881h188l-297 -1098h-197z" />
<glyph unicode="w" horiz-adv-x="1327" d="M20 1098h181l176 -897h4l186 897h203l182 -897h4l170 897h181l-260 -1098h-189l-192 897h-4l-185 -897h-201z" />
<glyph unicode="x" horiz-adv-x="831" d="M12 0l301 571l-280 527h188l199 -391l201 391h188l-287 -527l297 -571h-188l-219 434l-211 -434h-189z" />
<glyph unicode="y" horiz-adv-x="831" d="M20 1098h189l217 -881h4l193 881h188l-317 -1170q-16 -57 -35 -108t-50.5 -91t-80.5 -63.5t-127 -23.5q-51 0 -77 2t-48 4v135q37 -6 100 -6q59 0 89 30.5t46 75.5l33 97z" />
<glyph unicode="z" horiz-adv-x="796" d="M55 0v135l498 815h-473v148h661v-144l-491 -807h487v-147h-682z" />
<glyph unicode="{" horiz-adv-x="530" d="M4 481v123q68 0 112 59.5t44 167.5v365q0 76 18.5 127t49 82t70.5 44t83 13h145v-135h-104q-37 0 -58.5 -15.5t-30.5 -40t-11.5 -54t-2.5 -58.5v-352q0 -74 -21.5 -124t-51 -80t-60 -43t-47.5 -15v-4q16 -2 47 -15.5t60.5 -43t51 -80t21.5 -123.5v-351q0 -29 2.5 -58.5 t11.5 -54t30.5 -40t58.5 -15.5h104v-135h-145q-43 0 -83 13.5t-70.5 44t-49 82t-18.5 126.5v363q0 109 -44 168t-112 59z" />
<glyph unicode="|" horiz-adv-x="454" d="M160 -27v1518h135v-1518h-135z" />
<glyph unicode="}" horiz-adv-x="530" d="M4 -240h105q37 0 58 15.5t30.5 40t11.5 54.5t2 58v351q0 74 21.5 124t51 79.5t60.5 43t47 15.5v4q-16 2 -47 15t-60.5 43t-51 80t-21.5 124v352q0 29 -2 58.5t-11.5 54t-31 40t-57.5 15.5h-105v135h146q43 0 82.5 -13t70.5 -44t49.5 -82t18.5 -127v-365q0 -109 44 -168 t111 -59v-123q-68 0 -111.5 -59.5t-43.5 -167.5v-363q0 -76 -18.5 -127t-49.5 -81.5t-70.5 -44t-82.5 -13.5h-146v135z" />
<glyph unicode="~" horiz-adv-x="1228" d="M115 473q23 33 50.5 66.5t61 61.5t75.5 45.5t91 17.5q27 0 50.5 -1t47 -7.5t51 -18.5t64.5 -33q51 -29 106.5 -62.5t112.5 -33.5q35 0 66 15.5t57.5 39t46 49t33.5 45.5l86 -92q-23 -33 -50.5 -67.5t-61 -62t-75.5 -45t-91 -17.5q-29 0 -51.5 1t-46 7t-51.5 18.5 t-64 32.5q-51 29 -106.5 62.5t-113.5 33.5q-35 0 -65.5 -15t-57 -38.5t-46 -49.5t-33.5 -46z" />
<glyph unicode="&#xa1;" horiz-adv-x="528" d="M170 -358l33 1079h123l32 -1079h-188zM170 905v197h188v-197h-188z" />
<glyph unicode="&#xa2;" horiz-adv-x="983" d="M121 535q0 98 12 198.5t49 184t104.5 141t178.5 67.5v144h86v-144q98 -6 159.5 -46t95.5 -94t45 -114.5t11 -107.5h-172q0 37 -7 75t-23.5 69.5t-43 54t-65.5 28.5v-885q43 10 69.5 38t42 67t21.5 83t6 87h172q0 -63 -15.5 -131t-52 -126t-96 -100t-147.5 -51v-174h-86 v174q-182 10 -263 148.5t-81 413.5zM301 537q0 -53 3 -121t18.5 -132.5t48 -113.5t94.5 -64v885q-33 -8 -62.5 -31.5t-52 -76t-36 -136t-13.5 -210.5z" />
<glyph unicode="&#xa3;" horiz-adv-x="983" d="M39 121q45 37 90 77t82 86t59.5 99t22.5 119q0 43 -10.5 84t-32.5 73h-195v123h144l-33 64q-29 57 -48.5 116.5t-19.5 118.5q0 88 32 157t88 116t131 71.5t161 24.5q90 0 165 -24.5t128 -76t82.5 -130t29.5 -185.5h-172q0 57 -12 107.5t-39.5 89.5t-72 61.5t-109.5 22.5 q-66 0 -111 -20.5t-71.5 -52.5t-37.5 -69.5t-11 -72.5q0 -68 36.5 -154t77.5 -164h336v-123h-291q16 -31 25.5 -66.5t9.5 -72.5q0 -61 -23.5 -113.5t-60.5 -99.5t-84 -89t-92 -81l4 -4q41 20 86 38.5t88 18.5q41 0 68.5 -9t56.5 -19q29 -12 59.5 -21.5t73.5 -9.5 q25 0 46.5 3t46 12.5t54 24.5t72.5 40l76 -137q-63 -45 -134 -73t-148 -28q-51 0 -95.5 12.5t-86.5 28t-82 28.5t-85 13q-51 0 -100 -22l-96 -43z" />
<glyph unicode="&#xa4;" horiz-adv-x="983" d="M37 342l96 96q-43 57 -67.5 126t-24.5 147t24.5 145.5t67.5 124.5l-96 96l88 88l96 -96q117 92 271 92q78 0 146.5 -24.5t123.5 -67.5l96 96l88 -88l-96 -96q92 -117 92 -270q0 -78 -24.5 -146.5t-69.5 -124.5l98 -98l-86 -86l-98 98q-55 -45 -124 -69.5t-146 -24.5 q-78 0 -147 24.5t-126 67.5l-96 -96zM188 711q0 -68 24 -125.5t64.5 -99.5t96 -66.5t119.5 -24.5q63 0 118.5 24.5t96.5 66.5t64.5 99.5t23.5 125.5t-23.5 125t-64.5 99t-96.5 66.5t-118.5 24.5t-119 -24.5t-96.5 -66.5t-64.5 -99t-24 -125z" />
<glyph unicode="&#xa5;" horiz-adv-x="983" d="M18 1421h199l279 -663l288 663h181l-308 -694h226v-123h-281l-20 -45v-123h301v-123h-301v-313h-172v313h-301v123h301v123l-21 45h-280v123h225z" />
<glyph unicode="&#xa6;" horiz-adv-x="454" d="M160 -27v600h135v-600h-135zM160 889v602h135v-602h-135z" />
<glyph unicode="&#xa7;" horiz-adv-x="987" d="M61 655q0 55 15.5 97.5t42 76t63.5 61.5t80 56q-59 39 -95 106.5t-36 139.5q0 74 31 130t80 94t112.5 56.5t130.5 18.5q125 0 196 -37t106.5 -86t45 -101.5t13.5 -82.5h-180q0 84 -53.5 128t-127.5 44q-45 0 -77.5 -14.5t-54 -37t-32 -50t-10.5 -52.5q0 -35 14.5 -62.5 t38 -50t52 -43t59.5 -38.5l205 -123q49 -31 94 -62.5t79 -69.5t53.5 -86.5t19.5 -109.5q0 -100 -54.5 -175t-128.5 -126q63 -41 91 -110.5t28 -143.5q0 -78 -29.5 -136.5t-78.5 -98t-114 -60t-134 -20.5q-115 0 -187.5 35.5t-114.5 90t-57.5 116t-15.5 112.5h172 q0 -92 49 -155.5t154 -63.5q55 0 90 19.5t54.5 47t25.5 57t6 50.5q0 72 -53.5 124t-116.5 93l-231 143q-43 27 -82 58.5t-70 68.5t-49.5 80t-18.5 92zM233 678q0 -59 45.5 -101t98.5 -75l135 -86l123 -84q14 8 34.5 24.5t39 40t32 56t13.5 73.5q0 70 -48.5 120t-109.5 89 l-225 139q-20 -16 -45 -34.5t-45.5 -42t-34 -53t-13.5 -66.5z" />
<glyph unicode="&#xa8;" horiz-adv-x="417" d="M-35 1298v207h158v-207h-158zM295 1298v207h160v-207h-160z" />
<glyph unicode="&#xa9;" horiz-adv-x="1638" d="M59 731q0 158 59.5 296t163 241.5t242 163t295.5 59.5q158 0 296 -59.5t241.5 -163t163 -241.5t59.5 -296t-59.5 -296t-163 -240.5t-241.5 -162t-296 -59.5t-296 59.5t-241.5 162t-163 240.5t-59.5 296zM195 731q0 -133 49 -248.5t133 -201.5t198.5 -136.5t243.5 -50.5 t244 50.5t199 136.5t133 201.5t49 248.5q0 131 -49 248t-133 203t-199 136t-244 50t-243.5 -50t-198.5 -136t-133 -203t-49 -248zM383 725q0 104 30.5 190t89 148.5t141.5 97.5t187 35q76 0 144.5 -19.5t123 -59.5t90.5 -99.5t46 -138.5h-123q-16 82 -91 138t-190 56 q-72 0 -130 -27.5t-99 -74.5t-62.5 -110.5t-21.5 -135.5t21.5 -135.5t62.5 -110.5t99.5 -74.5t129.5 -27.5q115 0 190 56t91 138h123q-10 -78 -46 -137t-90.5 -99t-123 -60.5t-144.5 -20.5q-104 0 -187 35t-141.5 97.5t-89 148.5t-30.5 190z" />
<glyph unicode="&#xaa;" horiz-adv-x="591" d="M16 942q0 74 35 120t113 68l149 41q57 14 67.5 36t10.5 57q0 47 -28.5 67.5t-81.5 20.5q-45 0 -70 -15.5t-36 -36t-13 -40t-2 -27.5v-8h-123q0 121 58.5 173t201.5 52q82 0 126 -20.5t64.5 -51t23.5 -64.5t3 -61v-360q0 -20 4 -37.5t31 -17.5q10 0 16 2t10 4v-86 q-6 -2 -26.5 -4t-50.5 -2q-41 0 -71 20.5t-32 73.5h-4q-25 -45 -73 -69.5t-107 -24.5q-96 0 -145.5 53t-49.5 137zM152 950q0 -41 20.5 -70.5t73.5 -29.5q27 0 53.5 10t47 25.5t32.5 36t12 41.5v157q-16 -16 -40.5 -25.5t-52.5 -16.5t-53.5 -15t-43.5 -21q-23 -16 -36 -33.5 t-13 -58.5z" />
<glyph unicode="&#xab;" horiz-adv-x="796" d="M100 502v160l291 292v-180l-192 -192l192 -193v-180zM406 502v160l290 292v-180l-192 -192l192 -193v-180z" />
<glyph unicode="&#xac;" horiz-adv-x="1228" d="M96 659v136h1037v-578h-136v442h-901z" />
<glyph unicode="&#xad;" horiz-adv-x="720" d="M111 502v160h499v-160h-499z" />
<glyph unicode="&#xae;" horiz-adv-x="1638" d="M59 731q0 158 59.5 296t163 241.5t242 163t295.5 59.5q158 0 296 -59.5t241.5 -163t163 -241.5t59.5 -296t-59.5 -296t-163 -240.5t-241.5 -162t-296 -59.5t-296 59.5t-241.5 162t-163 240.5t-59.5 296zM195 731q0 -133 49 -248.5t133 -201.5t198.5 -136.5t243.5 -50.5 t244 50.5t199 136.5t133 201.5t49 248.5q0 131 -49 248t-133 203t-199 136t-244 50t-243.5 -50t-198.5 -136t-133 -203t-49 -248zM516 283v888h344q147 0 225 -63.5t78 -196.5q0 -119 -68.5 -177t-170.5 -68l254 -383h-136l-245 372h-146v-372h-135zM651 778h146q45 0 87 3 t74.5 16.5t51 42t18.5 78.5q0 43 -16.5 69.5t-44 39.5t-62.5 17.5t-69 4.5h-185v-271z" />
<glyph unicode="&#xaf;" horiz-adv-x="417" d="M-59 1341v111h538v-111h-538z" />
<glyph unicode="&#xb0;" horiz-adv-x="819" d="M104 1145q0 66 23 122t63.5 97t97 63.5t122.5 22.5t122 -22.5t97 -63.5t63.5 -97.5t22.5 -121.5q0 -66 -22.5 -122t-63.5 -97t-97.5 -63.5t-121.5 -22.5q-66 0 -122.5 22.5t-97 63.5t-63.5 97t-23 122zM215 1145q0 -41 15.5 -76t42 -61.5t61.5 -42t76 -15.5 q39 0 74.5 15.5t62 42t42 61.5t15.5 76q0 39 -15.5 74.5t-42 62.5t-62 42t-74.5 15q-41 0 -76 -15t-61.5 -42t-42 -62.5t-15.5 -74.5z" />
<glyph unicode="&#xb1;" horiz-adv-x="1228" d="M96 0v135h1037v-135h-1037zM96 604v135h451v297h135v-297h451v-135h-451v-297h-135v297h-451z" />
<glyph unicode="&#xb2;" horiz-adv-x="638" d="M41 1171q0 59 14.5 110.5t48 88.5t88 58.5t134.5 21.5q119 0 195.5 -58.5t76.5 -174.5q0 -51 -11.5 -90.5t-31.5 -73t-52 -63t-71 -62.5l-127 -103q-41 -33 -63.5 -65.5t-32.5 -63.5h369v-123h-535q0 61 17.5 112.5t46 95.5t65.5 81t76 70l76 61q59 47 93 93.5t34 117.5 q0 53 -31 88t-105 35q-43 0 -68.5 -17.5t-38.5 -42t-16.5 -51t-3.5 -45.5h-147z" />
<glyph unicode="&#xb3;" horiz-adv-x="638" d="M33 801v10h147q0 -25 8.5 -49.5t25.5 -45t44 -33.5t66 -13q20 0 43.5 7t44 23.5t34 46t13.5 72.5q0 70 -40 111t-124 41h-57v110h49q74 0 110.5 41t36.5 101q0 47 -27.5 81.5t-84.5 34.5q-43 0 -69 -15t-38 -37.5t-16 -46t-4 -42.5h-148q0 113 63.5 182.5t215.5 69.5 q80 0 129 -21.5t77.5 -55.5t39 -73.5t10.5 -76.5q0 -66 -43 -119t-129 -70v-4q88 -14 142 -62t54 -141q0 -121 -67.5 -194.5t-210.5 -73.5q-102 0 -160.5 33t-88.5 74t-38 80.5t-8 54.5z" />
<glyph unicode="&#xb4;" horiz-adv-x="417" d="M106 1249l144 291h201l-222 -291h-123z" />
<glyph unicode="&#xb5;" horiz-adv-x="948" d="M113 -358v1456h172v-758q0 -31 3 -70t19.5 -72.5t48 -56t90.5 -22.5q35 0 73 12t71 39t53.5 69t20.5 101v758h172v-1098h-164v129h-4q-35 -76 -111 -116t-156 -40q-35 0 -64.5 5.5t-51.5 21.5v-358h-172z" />
<glyph unicode="&#xb6;" horiz-adv-x="1138" d="M74 1040q0 100 34.5 178t99 132.5t153 83t196.5 28.5h420v-1747h-135v1637h-205v-1637h-135v944q-94 0 -173 30t-135.5 81t-88 121t-31.5 149z" />
<glyph unicode="&#xb7;" horiz-adv-x="491" d="M131 670q0 47 34 80.5t81 33.5t80.5 -33.5t33.5 -80.5t-33.5 -81t-80.5 -34t-81 34t-34 81z" />
<glyph unicode="&#xb8;" horiz-adv-x="417" d="M0 -391l29 69q2 0 18 -4t36.5 -9t42 -8t34.5 -3q63 0 87.5 24.5t24.5 59.5t-29.5 55.5t-66.5 20.5q-33 0 -52.5 -5.5t-25.5 -9.5l-30 37l120 176h86l-84 -121l5 -4q10 4 30.5 8.5t30.5 4.5q27 0 55.5 -8.5t53 -27t40 -48t15.5 -72.5q0 -39 -18.5 -71.5t-48 -55.5 t-69.5 -36t-83 -13q-57 0 -112.5 10t-88.5 31z" />
<glyph unicode="&#xb9;" horiz-adv-x="638" d="M66 1214v99q43 0 83.5 4t73.5 18.5t52.5 41t21.5 73.5h100v-877h-135v641h-196z" />
<glyph unicode="&#xba;" horiz-adv-x="591" d="M33 1104q0 68 11 130t40 110.5t80 77t129 28.5q80 0 132 -28.5t82 -77t41 -111t11 -129.5q0 -70 -11 -133.5t-42 -112.5t-82 -77.5t-131 -28.5q-78 0 -129 28.5t-80 77.5t-40 112.5t-11 133.5zM168 1104q0 -47 5 -92t18.5 -81t38 -58.5t63.5 -22.5t64.5 22.5t41 58.5 t20.5 81t5 92q0 45 -5 89t-19.5 79t-40 57.5t-66.5 22.5q-37 0 -61.5 -22.5t-39 -57.5t-19.5 -79t-5 -89z" />
<glyph unicode="&#xbb;" horiz-adv-x="796" d="M100 209v180l193 193l-193 192v180l291 -292v-160zM406 209v180l192 193l-192 192v180l290 -292v-160z" />
<glyph unicode="&#xbc;" horiz-adv-x="1476" d="M66 1214v99q43 0 83.5 4t73.5 18.5t52.5 41t21.5 73.5h100v-877h-135v641h-196zM190 -61l889 1546h123l-889 -1546h-123zM819 203v123l328 551h147v-564h97v-110h-97v-203h-135v203h-340zM930 313h229v379h-4z" />
<glyph unicode="&#xbd;" horiz-adv-x="1476" d="M61 1214v99q43 0 84 4t74 18.5t52.5 41t21.5 73.5h100v-877h-135v641h-197zM152 -61l888 1546h123l-889 -1546h-122zM858 598q0 59 14.5 110.5t48 88.5t88 58.5t134.5 21.5q119 0 195.5 -58.5t76.5 -175.5q0 -51 -11 -90t-31.5 -73t-52.5 -63.5t-71 -62.5l-127 -102 q-41 -33 -63.5 -65.5t-32.5 -63.5h369v-123h-535q0 61 17.5 112.5t46 95.5t65.5 81t76 69l76 62q59 47 93 93t34 118q0 53 -31 88t-104 35q-43 0 -69 -17.5t-39 -42t-16 -51.5t-3 -45h-148z" />
<glyph unicode="&#xbe;" horiz-adv-x="1476" d="M41 801v10h147q0 -25 8.5 -49.5t26 -45t44 -33.5t65.5 -13q20 0 43.5 7t44 23.5t34 46t13.5 72.5q0 70 -40 111t-124 41h-57v110h49q74 0 110.5 41t36.5 101q0 47 -27.5 81.5t-84.5 34.5q-43 0 -68.5 -15t-38 -37.5t-16.5 -46t-4 -42.5h-148q0 113 63.5 182.5t215.5 69.5 q80 0 129 -21.5t77.5 -55.5t39 -73.5t10.5 -76.5q0 -66 -43 -119t-129 -70v-4q88 -14 142 -62t54 -141q0 -121 -67.5 -194.5t-210.5 -73.5q-102 0 -160.5 33t-88.5 74t-38 80.5t-8 54.5zM297 -61l889 1546h123l-889 -1546h-123zM864 203v123l328 551h147v-564h97v-110h-97 v-203h-135v203h-340zM975 313h229v379h-4z" />
<glyph unicode="&#xbf;" d="M72 8q0 78 26.5 154t75.5 135q8 8 31.5 34.5t49.5 56.5t49.5 55.5t29.5 33.5q39 49 52 103.5t13 101.5v39h160q0 -61 -5 -129t-34 -123q-18 -33 -46 -70t-57.5 -71.5t-57 -66.5t-46.5 -54q-35 -47 -48 -93t-13 -114q0 -45 12 -86t37 -72.5t62.5 -50t87.5 -18.5 q74 0 116.5 32.5t64 78.5t28 97.5t6.5 88.5h172q0 -90 -22.5 -171t-69 -141.5t-119 -96.5t-170.5 -36q-92 0 -164 30t-121 81t-74.5 120.5t-25.5 151.5zM383 905v197h188v-197h-188z" />
<glyph unicode="&#xc0;" horiz-adv-x="1024" d="M-14 0l420 1462h241l393 -1462h-188l-104 401h-467l-109 -401h-186zM285 1833h200l144 -291h-123zM317 549h394l-187 706h-4z" />
<glyph unicode="&#xc1;" horiz-adv-x="1024" d="M-14 0l420 1462h241l393 -1462h-188l-104 401h-467l-109 -401h-186zM317 549h394l-187 706h-4zM424 1542l143 291h201l-221 -291h-123z" />
<glyph unicode="&#xc2;" horiz-adv-x="1024" d="M-14 0l420 1462h241l393 -1462h-188l-104 401h-467l-109 -401h-186zM242 1542l207 291h157l205 -291h-160l-125 180l-125 -180h-159zM317 549h394l-187 706h-4z" />
<glyph unicode="&#xc3;" horiz-adv-x="1024" d="M-14 0l420 1462h241l393 -1462h-188l-104 401h-467l-109 -401h-186zM225 1567q0 45 14.5 86t40 72.5t60.5 50t76 18.5q29 0 60.5 -11t62.5 -28q31 -14 58.5 -26.5t47.5 -12.5q39 0 52.5 32t19.5 60h110q0 -39 -11 -78.5t-32.5 -72.5t-55.5 -54.5t-77 -21.5 q-33 0 -67.5 12.5t-66.5 26.5t-58.5 26.5t-42.5 12.5q-20 0 -34.5 -9.5t-24 -23.5t-14.5 -29.5t-7 -29.5h-111zM317 549h394l-187 706h-4z" />
<glyph unicode="&#xc4;" horiz-adv-x="1024" d="M-14 0l420 1462h241l393 -1462h-188l-104 401h-467l-109 -401h-186zM281 1591v207h159v-207h-159zM317 549h394l-187 706h-4zM612 1591v207h160v-207h-160z" />
<glyph unicode="&#xc5;" horiz-adv-x="1024" d="M-14 0l420 1462h241l393 -1462h-188l-104 401h-467l-109 -401h-186zM317 549h394l-187 706h-4zM324 1706q0 86 58 144.5t144 58.5t144.5 -58.5t58.5 -144.5t-58.5 -144.5t-144.5 -58.5t-144 58.5t-58 144.5zM410 1706q0 -47 34.5 -82t81.5 -35t82 35t35 82t-35 82t-82 35 t-81.5 -35t-34.5 -82z" />
<glyph unicode="&#xc6;" horiz-adv-x="1478" d="M-14 0l563 1462h856v-159h-545v-459h512v-160h-512v-524h570v-160h-750v401h-358l-150 -401h-186zM373 549h307v766h-21z" />
<glyph unicode="&#xc7;" horiz-adv-x="1062" d="M98 731q0 137 16.5 273.5t67.5 245t143.5 175t243.5 66.5q223 0 324.5 -120t107.5 -335h-188q-2 61 -14.5 117.5t-40 98.5t-73.5 66.5t-116 24.5q-94 0 -149 -48t-85 -131t-39 -194.5t-9 -238.5t9 -238.5t39 -194.5t85 -131t149 -48q82 0 131.5 34.5t77 90t36.5 123 t11 135.5h189q-6 -102 -31 -196.5t-75 -167t-130 -118t-194 -47.5l-56 -82l4 -4q10 4 31 8.5t31 4.5q27 0 55.5 -8.5t53 -27t40 -48t15.5 -72.5q0 -39 -18.5 -71.5t-48 -55.5t-69.5 -36t-83 -13q-57 0 -112.5 10t-90.5 31l31 69q2 0 18 -4t36.5 -9t42 -8t34.5 -3 q63 0 87.5 24.5t24.5 59.5t-29.5 55.5t-66.5 20.5q-33 0 -52.5 -5.5t-25.5 -9.5l-30 37l94 141q-133 14 -212 86t-121 176.5t-55.5 233.5t-13.5 258z" />
<glyph unicode="&#xc8;" horiz-adv-x="948" d="M119 0v1462h755v-159h-575v-459h543v-160h-543v-524h600v-160h-780zM258 1833h201l143 -291h-123z" />
<glyph unicode="&#xc9;" horiz-adv-x="948" d="M119 0v1462h755v-159h-575v-459h543v-160h-543v-524h600v-160h-780zM397 1542l144 291h200l-221 -291h-123z" />
<glyph unicode="&#xca;" horiz-adv-x="948" d="M119 0v1462h755v-159h-575v-459h543v-160h-543v-524h600v-160h-780zM215 1542l207 291h158l204 -291h-159l-125 180l-125 -180h-160z" />
<glyph unicode="&#xcb;" horiz-adv-x="948" d="M119 0v1462h755v-159h-575v-459h543v-160h-543v-524h600v-160h-780zM254 1591v207h160v-207h-160zM586 1591v207h159v-207h-159z" />
<glyph unicode="&#xcc;" horiz-adv-x="417" d="M-31 1833h199l143 -291h-123zM119 0v1462h180v-1462h-180z" />
<glyph unicode="&#xcd;" horiz-adv-x="417" d="M106 1542l144 291h201l-222 -291h-123zM119 0v1462h180v-1462h-180z" />
<glyph unicode="&#xce;" horiz-adv-x="417" d="M-74 1542l205 291h158l205 -291h-160l-125 180l-125 -180h-158zM119 0v1462h180v-1462h-180z" />
<glyph unicode="&#xcf;" horiz-adv-x="417" d="M-35 1591v207h158v-207h-158zM119 0v1462h180v-1462h-180zM295 1591v207h160v-207h-160z" />
<glyph unicode="&#xd0;" horiz-adv-x="1138" d="M18 696v135h119v631h391q170 0 271.5 -57t155 -156.5t69.5 -232.5t16 -285q0 -139 -20.5 -270t-75.5 -233.5t-151.5 -165t-245.5 -62.5h-410v696h-119zM317 147h189q117 0 185.5 54.5t104 138.5t46 187.5t10.5 201.5q0 106 -8 210.5t-42 187.5t-103.5 135.5t-192.5 52.5 h-189v-484h275v-135h-275v-549z" />
<glyph unicode="&#xd1;" horiz-adv-x="1138" d="M119 0v1462h233l484 -1220h4v1220h180v-1462h-248l-469 1184h-4v-1184h-180zM268 1567q0 45 14.5 86t40 72.5t60.5 50t76 18.5q29 0 60.5 -11t62.5 -28q31 -14 58.5 -26.5t47.5 -12.5q39 0 52.5 32t19.5 60h110q0 -39 -11 -78.5t-32.5 -72.5t-55.5 -54.5t-77 -21.5 q-33 0 -67.5 12.5t-66.5 26.5t-58.5 26.5t-42.5 12.5q-20 0 -34.5 -9.5t-24 -23.5t-14.5 -29.5t-7 -29.5h-111z" />
<glyph unicode="&#xd2;" horiz-adv-x="1138" d="M98 731q0 137 16.5 273.5t67.5 245t143 175t244 66.5t244 -66.5t143.5 -175t67.5 -245t16 -273.5q0 -139 -16 -274t-67.5 -243t-143.5 -174.5t-244 -66.5t-244 66.5t-143 174.5t-67.5 243t-16.5 274zM287 731q0 -127 9 -238.5t39 -194.5t85 -131t149 -48t149.5 48 t85.5 131t39 194.5t9 238.5t-9 238.5t-39 194.5t-85.5 131t-149.5 48t-149 -48t-85 -131t-39 -194.5t-9 -238.5zM328 1833h200l144 -291h-123z" />
<glyph unicode="&#xd3;" horiz-adv-x="1138" d="M98 731q0 137 16.5 273.5t67.5 245t143 175t244 66.5t244 -66.5t143.5 -175t67.5 -245t16 -273.5q0 -139 -16 -274t-67.5 -243t-143.5 -174.5t-244 -66.5t-244 66.5t-143 174.5t-67.5 243t-16.5 274zM287 731q0 -127 9 -238.5t39 -194.5t85 -131t149 -48t149.5 48 t85.5 131t39 194.5t9 238.5t-9 238.5t-39 194.5t-85.5 131t-149.5 48t-149 -48t-85 -131t-39 -194.5t-9 -238.5zM467 1542l143 291h201l-221 -291h-123z" />
<glyph unicode="&#xd4;" horiz-adv-x="1138" d="M98 731q0 137 16.5 273.5t67.5 245t143 175t244 66.5t244 -66.5t143.5 -175t67.5 -245t16 -273.5q0 -139 -16 -274t-67.5 -243t-143.5 -174.5t-244 -66.5t-244 66.5t-143 174.5t-67.5 243t-16.5 274zM285 1542l207 291h157l205 -291h-160l-125 180l-125 -180h-159z M287 731q0 -127 9 -238.5t39 -194.5t85 -131t149 -48t149.5 48t85.5 131t39 194.5t9 238.5t-9 238.5t-39 194.5t-85.5 131t-149.5 48t-149 -48t-85 -131t-39 -194.5t-9 -238.5z" />
<glyph unicode="&#xd5;" horiz-adv-x="1138" d="M98 731q0 137 16.5 273.5t67.5 245t143 175t244 66.5t244 -66.5t143.5 -175t67.5 -245t16 -273.5q0 -139 -16 -274t-67.5 -243t-143.5 -174.5t-244 -66.5t-244 66.5t-143 174.5t-67.5 243t-16.5 274zM268 1567q0 45 14.5 86t40 72.5t60.5 50t76 18.5q29 0 60.5 -11 t62.5 -28q31 -14 58.5 -26.5t47.5 -12.5q39 0 52.5 32t19.5 60h110q0 -39 -11 -78.5t-32.5 -72.5t-55.5 -54.5t-77 -21.5q-33 0 -67.5 12.5t-66.5 26.5t-58.5 26.5t-42.5 12.5q-20 0 -34.5 -9.5t-24 -23.5t-14.5 -29.5t-7 -29.5h-111zM287 731q0 -127 9 -238.5t39 -194.5 t85 -131t149 -48t149.5 48t85.5 131t39 194.5t9 238.5t-9 238.5t-39 194.5t-85.5 131t-149.5 48t-149 -48t-85 -131t-39 -194.5t-9 -238.5z" />
<glyph unicode="&#xd6;" horiz-adv-x="1138" d="M98 731q0 137 16.5 273.5t67.5 245t143 175t244 66.5t244 -66.5t143.5 -175t67.5 -245t16 -273.5q0 -139 -16 -274t-67.5 -243t-143.5 -174.5t-244 -66.5t-244 66.5t-143 174.5t-67.5 243t-16.5 274zM287 731q0 -127 9 -238.5t39 -194.5t85 -131t149 -48t149.5 48 t85.5 131t39 194.5t9 238.5t-9 238.5t-39 194.5t-85.5 131t-149.5 48t-149 -48t-85 -131t-39 -194.5t-9 -238.5zM324 1591v207h159v-207h-159zM655 1591v207h160v-207h-160z" />
<glyph unicode="&#xd7;" horiz-adv-x="1228" d="M158 147l370 371l-370 371l86 86l370 -369l369 369l88 -86l-371 -371l371 -371l-88 -86l-369 369l-370 -369z" />
<glyph unicode="&#xd8;" horiz-adv-x="1138" d="M98 731q0 137 16.5 273.5t67.5 245t143.5 175t243.5 66.5q72 0 127.5 -14.5t100.5 -42.5l49 120l110 -45l-65 -157q45 -55 74.5 -126t46 -152t22.5 -168t6 -175q0 -139 -16 -274t-67.5 -243t-143.5 -174.5t-244 -66.5q-70 0 -125 14.5t-100 41.5l-53 -125l-111 49l68 162 q-47 55 -76 125.5t-45 150.5t-22.5 167t-6.5 173zM287 731q0 -123 8 -228.5t35 -189.5l403 969q-61 61 -164 61q-94 0 -149 -48t-85 -131t-39 -194.5t-9 -238.5zM408 180q61 -61 161 -61q94 0 149.5 48t85.5 131t39 194.5t9 238.5q0 123 -8 230.5t-35 189.5z" />
<glyph unicode="&#xd9;" horiz-adv-x="1062" d="M102 434v1028h181v-1028q0 -162 56 -238.5t191 -76.5q143 0 196.5 81t53.5 234v1028h181v-1028q0 -211 -108 -336t-323 -125q-221 0 -324.5 117t-103.5 344zM291 1833h201l143 -291h-123z" />
<glyph unicode="&#xda;" horiz-adv-x="1062" d="M102 434v1028h181v-1028q0 -162 56 -238.5t191 -76.5q143 0 196.5 81t53.5 234v1028h181v-1028q0 -211 -108 -336t-323 -125q-221 0 -324.5 117t-103.5 344zM430 1542l143 291h201l-221 -291h-123z" />
<glyph unicode="&#xdb;" horiz-adv-x="1062" d="M102 434v1028h181v-1028q0 -162 56 -238.5t191 -76.5q143 0 196.5 81t53.5 234v1028h181v-1028q0 -211 -108 -336t-323 -125q-221 0 -324.5 117t-103.5 344zM248 1542l207 291h157l205 -291h-160l-125 180l-124 -180h-160z" />
<glyph unicode="&#xdc;" horiz-adv-x="1062" d="M102 434v1028h181v-1028q0 -162 56 -238.5t191 -76.5q143 0 196.5 81t53.5 234v1028h181v-1028q0 -211 -108 -336t-323 -125q-221 0 -324.5 117t-103.5 344zM287 1591v207h159v-207h-159zM618 1591v207h160v-207h-160z" />
<glyph unicode="&#xdd;" horiz-adv-x="946" d="M-2 1462h197l278 -684l289 684h188l-387 -889v-573h-180v573zM371 1542l143 291h201l-221 -291h-123z" />
<glyph unicode="&#xde;" horiz-adv-x="985" d="M119 0v1462h180v-286h193q31 0 76.5 -2.5t96 -13.5t100.5 -36.5t90 -72.5t64.5 -119t24.5 -176q0 -102 -30.5 -181t-87 -133.5t-134.5 -82t-170 -27.5h-223v-332h-180zM299 479h215q98 0 170 69.5t72 215.5q0 121 -59.5 192.5t-194.5 71.5h-203v-549z" />
<glyph unicode="&#xdf;" horiz-adv-x="948" d="M98 0v1047q0 94 16.5 173.5t57.5 137t110.5 89.5t178.5 32q74 0 137.5 -19.5t111.5 -60.5t75.5 -104.5t27.5 -149.5q0 -49 -13.5 -98.5t-40 -91.5t-67.5 -71.5t-96 -39.5v-4q74 0 128 -31t91 -83t55.5 -121.5t18.5 -145.5q0 -82 -20.5 -164t-65.5 -147.5t-113.5 -106.5 t-167.5 -41h-121v147h119q57 0 94 32t57.5 80t29 102.5t8.5 97.5q0 139 -58.5 223t-161.5 84q-16 0 -40.5 -1t-40.5 -5v141h41q78 0 135 54.5t57 160.5q0 39 -8 79t-27.5 72.5t-54.5 54t-90 21.5q-68 0 -106 -23.5t-56 -61t-23.5 -86t-5.5 -97.5v-1075h-172z" />
<glyph unicode="&#xe0;" d="M59 291q0 117 50.5 193.5t156.5 109.5l232 70q47 14 72.5 28.5t36.5 33.5t13.5 44t2.5 59q0 78 -45.5 120t-131.5 42q-72 0 -109.5 -27.5t-55 -64.5t-20.5 -72.5t-3 -50.5v-10h-172q0 186 86 273t283 87q125 0 192.5 -32.5t99 -81.5t36.5 -103.5t5 -97.5v-612 q0 -35 6.5 -61.5t47.5 -26.5q16 0 25.5 3t15.5 7v-121q-10 -2 -39 -6t-62 -4q-25 0 -51 2t-47.5 15t-38 41t-18.5 81h-4q-41 -74 -114 -115t-151 -41q-154 0 -226.5 85t-72.5 233zM213 1540h201l143 -291h-123zM240 295q0 -84 33.5 -136.5t121.5 -52.5q43 0 83 16.5t71 45.5 t49 66.5t18 80.5v283q-25 -25 -62.5 -42t-78.5 -30.5t-82 -26t-69 -30.5q-41 -27 -62.5 -64.5t-21.5 -109.5z" />
<glyph unicode="&#xe1;" d="M59 291q0 117 50.5 193.5t156.5 109.5l232 70q47 14 72.5 28.5t36.5 33.5t13.5 44t2.5 59q0 78 -45.5 120t-131.5 42q-72 0 -109.5 -27.5t-55 -64.5t-20.5 -72.5t-3 -50.5v-10h-172q0 186 86 273t283 87q125 0 192.5 -32.5t99 -81.5t36.5 -103.5t5 -97.5v-612 q0 -35 6.5 -61.5t47.5 -26.5q16 0 25.5 3t15.5 7v-121q-10 -2 -39 -6t-62 -4q-25 0 -51 2t-47.5 15t-38 41t-18.5 81h-4q-41 -74 -114 -115t-151 -41q-154 0 -226.5 85t-72.5 233zM240 295q0 -84 33.5 -136.5t121.5 -52.5q43 0 83 16.5t71 45.5t49 66.5t18 80.5v283 q-25 -25 -62.5 -42t-78.5 -30.5t-82 -26t-69 -30.5q-41 -27 -62.5 -64.5t-21.5 -109.5zM352 1249l144 291h200l-221 -291h-123z" />
<glyph unicode="&#xe2;" d="M59 291q0 117 50.5 193.5t156.5 109.5l232 70q47 14 72.5 28.5t36.5 33.5t13.5 44t2.5 59q0 78 -45.5 120t-131.5 42q-72 0 -109.5 -27.5t-55 -64.5t-20.5 -72.5t-3 -50.5v-10h-172q0 186 86 273t283 87q125 0 192.5 -32.5t99 -81.5t36.5 -103.5t5 -97.5v-612 q0 -35 6.5 -61.5t47.5 -26.5q16 0 25.5 3t15.5 7v-121q-10 -2 -39 -6t-62 -4q-25 0 -51 2t-47.5 15t-38 41t-18.5 81h-4q-41 -74 -114 -115t-151 -41q-154 0 -226.5 85t-72.5 233zM170 1249l207 291h158l204 -291h-159l-125 181l-125 -181h-160zM240 295q0 -84 33.5 -136.5 t121.5 -52.5q43 0 83 16.5t71 45.5t49 66.5t18 80.5v283q-25 -25 -62.5 -42t-78.5 -30.5t-82 -26t-69 -30.5q-41 -27 -62.5 -64.5t-21.5 -109.5z" />
<glyph unicode="&#xe3;" d="M59 291q0 117 50.5 193.5t156.5 109.5l232 70q47 14 72.5 28.5t36.5 33.5t13.5 44t2.5 59q0 78 -45.5 120t-131.5 42q-72 0 -109.5 -27.5t-55 -64.5t-20.5 -72.5t-3 -50.5v-10h-172q0 186 86 273t283 87q125 0 192.5 -32.5t99 -81.5t36.5 -103.5t5 -97.5v-612 q0 -35 6.5 -61.5t47.5 -26.5q16 0 25.5 3t15.5 7v-121q-10 -2 -39 -6t-62 -4q-25 0 -51 2t-47.5 15t-38 41t-18.5 81h-4q-41 -74 -114 -115t-151 -41q-154 0 -226.5 85t-72.5 233zM154 1274q0 45 14 86t39.5 72.5t60.5 50t76 18.5q29 0 60.5 -11t62.5 -28q31 -14 58.5 -26.5 t47.5 -12.5q39 0 52.5 32t19.5 61h111q0 -39 -11.5 -79t-33 -73t-55 -54.5t-76.5 -21.5q-33 0 -68 12.5t-66.5 26.5t-58.5 26.5t-43 12.5q-20 0 -34.5 -9t-24 -23.5t-14.5 -30t-7 -29.5h-110zM240 295q0 -84 33.5 -136.5t121.5 -52.5q43 0 83 16.5t71 45.5t49 66.5t18 80.5 v283q-25 -25 -62.5 -42t-78.5 -30.5t-82 -26t-69 -30.5q-41 -27 -62.5 -64.5t-21.5 -109.5z" />
<glyph unicode="&#xe4;" d="M59 291q0 117 50.5 193.5t156.5 109.5l232 70q47 14 72.5 28.5t36.5 33.5t13.5 44t2.5 59q0 78 -45.5 120t-131.5 42q-72 0 -109.5 -27.5t-55 -64.5t-20.5 -72.5t-3 -50.5v-10h-172q0 186 86 273t283 87q125 0 192.5 -32.5t99 -81.5t36.5 -103.5t5 -97.5v-612 q0 -35 6.5 -61.5t47.5 -26.5q16 0 25.5 3t15.5 7v-121q-10 -2 -39 -6t-62 -4q-25 0 -51 2t-47.5 15t-38 41t-18.5 81h-4q-41 -74 -114 -115t-151 -41q-154 0 -226.5 85t-72.5 233zM209 1298v207h160v-207h-160zM240 295q0 -84 33.5 -136.5t121.5 -52.5q43 0 83 16.5t71 45.5 t49 66.5t18 80.5v283q-25 -25 -62.5 -42t-78.5 -30.5t-82 -26t-69 -30.5q-41 -27 -62.5 -64.5t-21.5 -109.5zM541 1298v207h159v-207h-159z" />
<glyph unicode="&#xe5;" d="M59 291q0 117 50.5 193.5t156.5 109.5l232 70q47 14 72.5 28.5t36.5 33.5t13.5 44t2.5 59q0 78 -45.5 120t-131.5 42q-72 0 -109.5 -27.5t-55 -64.5t-20.5 -72.5t-3 -50.5v-10h-172q0 186 86 273t283 87q125 0 192.5 -32.5t99 -81.5t36.5 -103.5t5 -97.5v-612 q0 -35 6.5 -61.5t47.5 -26.5q16 0 25.5 3t15.5 7v-121q-10 -2 -39 -6t-62 -4q-25 0 -51 2t-47.5 15t-38 41t-18.5 81h-4q-41 -74 -114 -115t-151 -41q-154 0 -226.5 85t-72.5 233zM240 295q0 -84 33.5 -136.5t121.5 -52.5q43 0 83 16.5t71 45.5t49 66.5t18 80.5v283 q-25 -25 -62.5 -42t-78.5 -30.5t-82 -26t-69 -30.5q-41 -27 -62.5 -64.5t-21.5 -109.5zM252 1413q0 86 58.5 144.5t144.5 58.5t144 -58.5t58 -144.5t-58 -144.5t-144 -58.5t-144.5 58.5t-58.5 144.5zM338 1413q0 -47 35 -82t82 -35t81.5 35t34.5 82t-34.5 82t-81.5 35 t-82 -35t-35 -82z" />
<glyph unicode="&#xe6;" horiz-adv-x="1366" d="M53 291q0 117 54.5 194.5t154.5 108.5l256 78q49 16 62.5 52t13.5 105q0 78 -39 120t-125 42q-66 0 -101.5 -27.5t-52 -64.5t-19.5 -72.5t-3 -50.5v-10h-172q0 188 87 274t273 86q109 0 176.5 -41t86.5 -110h4q14 35 40.5 62.5t62.5 48t76 30.5t79 10q119 0 187.5 -49 t103 -126t45 -171t10.5 -182v-70h-559q0 -63 3 -137t21.5 -137.5t57 -105.5t110.5 -42q61 0 98 28t56.5 68t26 84t6.5 74h172q0 -43 -15.5 -109.5t-54.5 -128t-105.5 -105.5t-171.5 -44q-86 0 -142 26t-89 58.5t-47 65.5t-16 49h-5q-41 -88 -111.5 -143.5t-193.5 -55.5 q-137 0 -219 85t-82 233zM233 297q0 -76 36 -133.5t118 -57.5q74 0 116 32t61.5 74t24.5 83t5 61v193v22h-4q-6 -10 -43 -25.5t-81 -29.5t-86 -26.5t-56 -18.5q-43 -16 -67 -56t-24 -118zM760 664h373v59q0 45 -8.5 93t-29 87t-56 63.5t-89.5 24.5q-63 0 -101 -35.5 t-57.5 -83t-25.5 -95.5t-6 -72v-41z" />
<glyph unicode="&#xe7;" horiz-adv-x="872" d="M66 535q0 102 13 207.5t55 190.5t119 139t204 54q113 0 181.5 -38.5t106 -95t50 -119t12.5 -109.5h-172q0 39 -9.5 80t-28.5 73.5t-53 53t-83 20.5q-41 0 -79 -14t-68.5 -62.5t-49 -138.5t-18.5 -239q0 -53 3 -127t23.5 -141.5t62.5 -115t120 -47.5q55 0 90 27t55.5 67 t27.5 88t7 93h172q0 -61 -15.5 -129t-52.5 -126t-97 -100t-150 -51l-60 -84l4 -4q10 4 30.5 8.5t31.5 4.5q27 0 55.5 -8.5t53 -27t40 -48t15.5 -72.5q0 -39 -18.5 -71.5t-48.5 -55.5t-70 -36t-83 -13q-57 0 -112.5 10t-89.5 31l30 69q2 0 18.5 -4t37 -9t42 -8t33.5 -3 q63 0 88 24.5t25 59.5t-29.5 55.5t-66.5 20.5q-33 0 -52.5 -5.5t-25.5 -9.5l-31 37l97 137q-180 16 -260 154.5t-80 407.5z" />
<glyph unicode="&#xe8;" d="M76 535q0 102 13 207.5t55 190.5t119 139t204 54q125 0 198.5 -49t110.5 -126t47.5 -171t10.5 -182v-70h-578q0 -63 3 -137t23.5 -137.5t62.5 -105.5t122 -42q61 0 98 28t56.5 68t25.5 84t6 74h172q0 -43 -15 -109.5t-56 -128t-113 -105.5t-184 -44q-203 0 -292 138.5 t-89 423.5zM213 1540h201l143 -291h-123zM262 664h391v59q0 45 -8 93t-29.5 87t-58.5 63.5t-94 24.5q-68 0 -108 -35.5t-60.5 -83t-26.5 -95.5t-6 -72v-41z" />
<glyph unicode="&#xe9;" d="M76 535q0 102 13 207.5t55 190.5t119 139t204 54q125 0 198.5 -49t110.5 -126t47.5 -171t10.5 -182v-70h-578q0 -63 3 -137t23.5 -137.5t62.5 -105.5t122 -42q61 0 98 28t56.5 68t25.5 84t6 74h172q0 -43 -15 -109.5t-56 -128t-113 -105.5t-184 -44q-203 0 -292 138.5 t-89 423.5zM262 664h391v59q0 45 -8 93t-29.5 87t-58.5 63.5t-94 24.5q-68 0 -108 -35.5t-60.5 -83t-26.5 -95.5t-6 -72v-41zM352 1249l144 291h200l-221 -291h-123z" />
<glyph unicode="&#xea;" d="M76 535q0 102 13 207.5t55 190.5t119 139t204 54q125 0 198.5 -49t110.5 -126t47.5 -171t10.5 -182v-70h-578q0 -63 3 -137t23.5 -137.5t62.5 -105.5t122 -42q61 0 98 28t56.5 68t25.5 84t6 74h172q0 -43 -15 -109.5t-56 -128t-113 -105.5t-184 -44q-203 0 -292 138.5 t-89 423.5zM170 1249l207 291h158l204 -291h-159l-125 181l-125 -181h-160zM262 664h391v59q0 45 -8 93t-29.5 87t-58.5 63.5t-94 24.5q-68 0 -108 -35.5t-60.5 -83t-26.5 -95.5t-6 -72v-41z" />
<glyph unicode="&#xeb;" d="M76 535q0 102 13 207.5t55 190.5t119 139t204 54q125 0 198.5 -49t110.5 -126t47.5 -171t10.5 -182v-70h-578q0 -63 3 -137t23.5 -137.5t62.5 -105.5t122 -42q61 0 98 28t56.5 68t25.5 84t6 74h172q0 -43 -15 -109.5t-56 -128t-113 -105.5t-184 -44q-203 0 -292 138.5 t-89 423.5zM209 1298v207h160v-207h-160zM262 664h391v59q0 45 -8 93t-29.5 87t-58.5 63.5t-94 24.5q-68 0 -108 -35.5t-60.5 -83t-26.5 -95.5t-6 -72v-41zM541 1298v207h159v-207h-159z" />
<glyph unicode="&#xec;" horiz-adv-x="417" d="M-31 1540h199l143 -291h-123zM123 0v1098h172v-1098h-172z" />
<glyph unicode="&#xed;" horiz-adv-x="417" d="M106 1249l144 291h201l-222 -291h-123zM123 0v1098h172v-1098h-172z" />
<glyph unicode="&#xee;" horiz-adv-x="417" d="M-74 1249l205 291h158l205 -291h-160l-125 181l-125 -181h-158zM123 0v1098h172v-1098h-172z" />
<glyph unicode="&#xef;" horiz-adv-x="417" d="M-35 1298v207h158v-207h-158zM123 0v1098h172v-1098h-172zM295 1298v207h160v-207h-160z" />
<glyph unicode="&#xf0;" d="M59 549q0 111 17.5 211t61.5 175t121 119t196 44q29 0 60.5 -8.5t59.5 -26.5h5q-41 63 -86 122.5t-99 117.5l-149 -84l-78 86l145 81q-35 35 -74.5 69t-82.5 69l131 57q41 -33 76.5 -63.5t70.5 -61.5l152 86l78 -86l-144 -82q78 -78 139.5 -163t103.5 -184t64.5 -217 t22.5 -261q0 -117 -17.5 -221.5t-62.5 -183t-121 -125t-194 -46.5q-119 0 -196 46.5t-121 125t-61.5 183t-17.5 221.5zM240 549q0 -90 8 -170t30.5 -140.5t64.5 -96.5t108 -36q68 0 110.5 36t67 96.5t33 140.5t8.5 170q0 74 -8.5 147.5t-32 133t-66 96.5t-112.5 37 q-66 0 -107 -37t-64.5 -96.5t-31.5 -133t-8 -147.5z" />
<glyph unicode="&#xf1;" horiz-adv-x="948" d="M113 0v1098h163v-129h5q35 76 110.5 116.5t155.5 40.5q109 0 167 -35.5t85.5 -89t32 -114t4.5 -109.5v-778h-172v758q0 31 -3.5 69.5t-19.5 72.5t-49 56.5t-90 22.5q-35 0 -73 -12.5t-70.5 -39t-53 -68.5t-20.5 -101v-758h-172zM174 1274q0 45 14.5 86t40 72.5t60.5 50 t76 18.5q29 0 60.5 -11t61.5 -28q31 -14 58.5 -26.5t48.5 -12.5q39 0 52 32t20 61h110q0 -39 -11 -79t-32.5 -73t-55.5 -54.5t-77 -21.5q-33 0 -67.5 12.5t-66.5 26.5t-58.5 26.5t-42.5 12.5q-20 0 -35 -9t-24 -23.5t-14 -30t-7 -29.5h-111z" />
<glyph unicode="&#xf2;" d="M59 549q0 117 17.5 221t61.5 183t121 126t196 47t195.5 -47t120.5 -126t61.5 -183t17.5 -221t-17.5 -221.5t-62.5 -183t-121 -125t-194 -46.5q-119 0 -196 46.5t-121 125t-61.5 183t-17.5 221.5zM213 1540h201l143 -291h-123zM240 549q0 -90 8 -170t30.5 -140.5 t64.5 -96.5t108 -36q68 0 110.5 36t67 96.5t33 140.5t8.5 170q0 88 -8.5 169t-32 141.5t-66.5 96t-112 35.5q-66 0 -107 -35.5t-64.5 -96t-31.5 -141.5t-8 -169z" />
<glyph unicode="&#xf3;" d="M59 549q0 117 17.5 221t61.5 183t121 126t196 47t195.5 -47t120.5 -126t61.5 -183t17.5 -221t-17.5 -221.5t-62.5 -183t-121 -125t-194 -46.5q-119 0 -196 46.5t-121 125t-61.5 183t-17.5 221.5zM240 549q0 -90 8 -170t30.5 -140.5t64.5 -96.5t108 -36q68 0 110.5 36 t67 96.5t33 140.5t8.5 170q0 88 -8.5 169t-32 141.5t-66.5 96t-112 35.5q-66 0 -107 -35.5t-64.5 -96t-31.5 -141.5t-8 -169zM352 1249l144 291h200l-221 -291h-123z" />
<glyph unicode="&#xf4;" d="M59 549q0 117 17.5 221t61.5 183t121 126t196 47t195.5 -47t120.5 -126t61.5 -183t17.5 -221t-17.5 -221.5t-62.5 -183t-121 -125t-194 -46.5q-119 0 -196 46.5t-121 125t-61.5 183t-17.5 221.5zM170 1249l207 291h158l204 -291h-159l-125 181l-125 -181h-160zM240 549 q0 -90 8 -170t30.5 -140.5t64.5 -96.5t108 -36q68 0 110.5 36t67 96.5t33 140.5t8.5 170q0 88 -8.5 169t-32 141.5t-66.5 96t-112 35.5q-66 0 -107 -35.5t-64.5 -96t-31.5 -141.5t-8 -169z" />
<glyph unicode="&#xf5;" d="M59 549q0 117 17.5 221t61.5 183t121 126t196 47t195.5 -47t120.5 -126t61.5 -183t17.5 -221t-17.5 -221.5t-62.5 -183t-121 -125t-194 -46.5q-119 0 -196 46.5t-121 125t-61.5 183t-17.5 221.5zM154 1274q0 45 14 86t39.5 72.5t60.5 50t76 18.5q29 0 60.5 -11t62.5 -28 q31 -14 58.5 -26.5t47.5 -12.5q39 0 52.5 32t19.5 61h111q0 -39 -11.5 -79t-33 -73t-55 -54.5t-76.5 -21.5q-33 0 -68 12.5t-66.5 26.5t-58.5 26.5t-43 12.5q-20 0 -34.5 -9t-24 -23.5t-14.5 -30t-7 -29.5h-110zM240 549q0 -90 8 -170t30.5 -140.5t64.5 -96.5t108 -36 q68 0 110.5 36t67 96.5t33 140.5t8.5 170q0 88 -8.5 169t-32 141.5t-66.5 96t-112 35.5q-66 0 -107 -35.5t-64.5 -96t-31.5 -141.5t-8 -169z" />
<glyph unicode="&#xf6;" d="M59 549q0 117 17.5 221t61.5 183t121 126t196 47t195.5 -47t120.5 -126t61.5 -183t17.5 -221t-17.5 -221.5t-62.5 -183t-121 -125t-194 -46.5q-119 0 -196 46.5t-121 125t-61.5 183t-17.5 221.5zM209 1298v207h160v-207h-160zM240 549q0 -90 8 -170t30.5 -140.5 t64.5 -96.5t108 -36q68 0 110.5 36t67 96.5t33 140.5t8.5 170q0 88 -8.5 169t-32 141.5t-66.5 96t-112 35.5q-66 0 -107 -35.5t-64.5 -96t-31.5 -141.5t-8 -169zM541 1298v207h159v-207h-159z" />
<glyph unicode="&#xf7;" horiz-adv-x="1228" d="M96 451v135h1037v-135h-1037zM500 86q0 47 33.5 81t80.5 34t81 -34t34 -81t-33.5 -80t-81.5 -33q-47 0 -80.5 33t-33.5 80zM500 950q0 47 33.5 81t80.5 34t81 -34t34 -81t-33.5 -80.5t-81.5 -33.5q-47 0 -80.5 33.5t-33.5 80.5z" />
<glyph unicode="&#xf8;" d="M59 549q0 117 17.5 221t61.5 183t121 126t196 47q100 0 172 -36l53 124l98 -43l-61 -145q78 -86 105.5 -207t27.5 -270q0 -117 -17.5 -221.5t-62.5 -183t-121 -125t-194 -46.5q-98 0 -172 35l-56 -127l-96 39l66 154q-78 78 -108 199.5t-30 275.5zM240 549q0 -80 7 -155 t27 -136l293 690q-49 43 -116 43q-66 0 -107 -35.5t-64.5 -96t-31.5 -141.5t-8 -169zM342 145q43 -39 109 -39q68 0 110.5 36t67 96.5t33 140.5t8.5 170q0 78 -7.5 151.5t-27.5 133.5z" />
<glyph unicode="&#xf9;" horiz-adv-x="948" d="M113 319v779h172v-758q0 -31 3 -70t19.5 -72.5t48 -56t90.5 -22.5q35 0 73 12t71 39t53.5 69t20.5 101v758h172v-1098h-164v129h-4q-35 -76 -111 -116t-156 -40q-109 0 -167 36t-85.5 89.5t-31.5 112.5t-4 108zM233 1540h201l144 -291h-123z" />
<glyph unicode="&#xfa;" horiz-adv-x="948" d="M113 319v779h172v-758q0 -31 3 -70t19.5 -72.5t48 -56t90.5 -22.5q35 0 73 12t71 39t53.5 69t20.5 101v758h172v-1098h-164v129h-4q-35 -76 -111 -116t-156 -40q-109 0 -167 36t-85.5 89.5t-31.5 112.5t-4 108zM373 1249l143 291h201l-221 -291h-123z" />
<glyph unicode="&#xfb;" horiz-adv-x="948" d="M113 319v779h172v-758q0 -31 3 -70t19.5 -72.5t48 -56t90.5 -22.5q35 0 73 12t71 39t53.5 69t20.5 101v758h172v-1098h-164v129h-4q-35 -76 -111 -116t-156 -40q-109 0 -167 36t-85.5 89.5t-31.5 112.5t-4 108zM190 1249l207 291h158l205 -291h-160l-125 181l-125 -181 h-160z" />
<glyph unicode="&#xfc;" horiz-adv-x="948" d="M113 319v779h172v-758q0 -31 3 -70t19.5 -72.5t48 -56t90.5 -22.5q35 0 73 12t71 39t53.5 69t20.5 101v758h172v-1098h-164v129h-4q-35 -76 -111 -116t-156 -40q-109 0 -167 36t-85.5 89.5t-31.5 112.5t-4 108zM229 1298v207h160v-207h-160zM561 1298v207h160v-207h-160z " />
<glyph unicode="&#xfd;" horiz-adv-x="831" d="M20 1098h189l217 -881h4l193 881h188l-317 -1170q-16 -57 -35 -108t-50.5 -91t-80.5 -63.5t-127 -23.5q-51 0 -77 2t-48 4v135q37 -6 100 -6q59 0 89 30.5t46 75.5l33 97zM313 1249l144 291h200l-221 -291h-123z" />
<glyph unicode="&#xfe;" horiz-adv-x="948" d="M113 -358v1820h172v-489h4q10 35 33.5 63.5t56.5 48t68.5 30.5t70.5 11q98 0 166 -41t111 -114.5t62.5 -176t19.5 -225.5q0 -94 -16.5 -198.5t-56.5 -192.5t-109.5 -146.5t-176.5 -58.5q-74 0 -137.5 40t-91.5 112h-4v-483h-172zM274 549q0 -80 8.5 -157t33 -138 t67.5 -98t113 -37q119 0 159.5 118.5t40.5 331.5q0 90 -9 166t-31.5 130.5t-61.5 84t-98 29.5q-72 0 -115 -32t-66.5 -89t-32 -136t-8.5 -173z" />
<glyph unicode="&#xff;" horiz-adv-x="831" d="M20 1098h189l217 -881h4l193 881h188l-317 -1170q-16 -57 -35 -108t-50.5 -91t-80.5 -63.5t-127 -23.5q-51 0 -77 2t-48 4v135q37 -6 100 -6q59 0 89 30.5t46 75.5l33 97zM170 1298v207h160v-207h-160zM502 1298v207h160v-207h-160z" />
<glyph unicode="&#x152;" horiz-adv-x="1630" d="M98 731q0 137 16.5 273.5t67.5 245t143.5 175t243.5 66.5q39 0 82 -9t81 -26.5t70 -44.5t50 -61h4v112h700v-159h-532v-459h500v-160h-500v-524h557v-160h-733v129h-4q-29 -74 -105.5 -115t-169.5 -41q-152 0 -244 62.5t-143 168t-67.5 243t-16.5 284.5zM279 731 q0 -127 9 -238.5t39.5 -194.5t88 -131t153.5 -48q88 0 141.5 28.5t83 77.5t40 113.5t10.5 136.5v473q0 78 -5 149.5t-32 126t-82 87t-156 32.5q-96 0 -153.5 -48t-88 -131t-39.5 -194.5t-9 -238.5z" />
<glyph unicode="&#x153;" horiz-adv-x="1478" d="M80 549q0 111 17.5 215t60.5 185t117.5 129t189.5 48t182.5 -45t118.5 -141q39 86 117 136t170 50q119 0 187.5 -49t103 -126t45 -171t10.5 -182v-70h-559q0 -63 3 -137t21.5 -137.5t57.5 -105.5t110 -42q61 0 98 28t56.5 68t26 84t6.5 74h172q0 -43 -15.5 -109.5 t-54.5 -128t-105.5 -105.5t-171.5 -44q-86 0 -142 27t-88 59.5t-45 63.5t-15 37q-39 -88 -115 -137.5t-174 -49.5q-115 0 -189.5 48.5t-117.5 128t-60.5 184t-17.5 215.5zM260 549q0 -84 8 -164t31 -141.5t62.5 -99.5t103.5 -38q68 0 109.5 38t65.5 99.5t32 141.5t8 164 t-8 164t-32 141t-66 99t-109 38q-63 0 -103 -38t-63 -99t-31 -141t-8 -164zM846 664h373v59q0 45 -8.5 93t-29 87t-56 63.5t-89.5 24.5q-63 0 -101 -35.5t-57.5 -83t-25.5 -95.5t-6 -72v-41z" />
<glyph unicode="&#x178;" horiz-adv-x="946" d="M-2 1462h197l278 -684l289 684h188l-387 -889v-573h-180v573zM227 1591v207h160v-207h-160zM559 1591v207h160v-207h-160z" />
<glyph unicode="&#x2c6;" horiz-adv-x="417" d="M-74 1249l205 291h158l205 -291h-160l-125 181l-125 -181h-158z" />
<glyph unicode="&#x2dc;" horiz-adv-x="417" d="M-90 1274q0 45 14.5 86t40 72.5t59 50t74.5 18.5q29 0 60.5 -11t62.5 -28q31 -14 58.5 -26.5t48.5 -12.5q39 0 52 32t19 61h111q0 -39 -11.5 -79t-33 -73t-55 -54.5t-76.5 -21.5q-33 0 -68 12.5t-66.5 26.5t-58 26.5t-43.5 12.5q-20 0 -34.5 -9t-23.5 -23.5t-14.5 -30 t-7.5 -29.5h-108z" />
<glyph unicode="&#x2000;" horiz-adv-x="954" />
<glyph unicode="&#x2001;" horiz-adv-x="1909" />
<glyph unicode="&#x2002;" horiz-adv-x="954" />
<glyph unicode="&#x2003;" horiz-adv-x="1909" />
<glyph unicode="&#x2004;" horiz-adv-x="636" />
<glyph unicode="&#x2005;" horiz-adv-x="477" />
<glyph unicode="&#x2006;" horiz-adv-x="318" />
<glyph unicode="&#x2007;" horiz-adv-x="318" />
<glyph unicode="&#x2008;" horiz-adv-x="238" />
<glyph unicode="&#x2009;" horiz-adv-x="381" />
<glyph unicode="&#x200a;" horiz-adv-x="106" />
<glyph unicode="&#x2010;" horiz-adv-x="720" d="M111 502v160h499v-160h-499z" />
<glyph unicode="&#x2011;" horiz-adv-x="720" d="M111 502v160h499v-160h-499z" />
<glyph unicode="&#x2012;" horiz-adv-x="720" d="M111 502v160h499v-160h-499z" />
<glyph unicode="&#x2013;" horiz-adv-x="1024" d="M0 508v147h1024v-147h-1024z" />
<glyph unicode="&#x2014;" horiz-adv-x="2048" d="M0 508v147h2048v-147h-2048z" />
<glyph unicode="&#x2018;" horiz-adv-x="491" d="M152 942v178q0 57 5 111.5t23.5 99.5t56 79t103.5 52v-96q-53 -27 -71.5 -61.5t-18.5 -96.5v-49h90v-217h-188z" />
<glyph unicode="&#x2019;" horiz-adv-x="491" d="M152 942v96q53 27 71.5 62t18.5 96v49h-90v217h188v-178q0 -59 -5 -112.5t-23.5 -98.5t-56.5 -78.5t-103 -52.5z" />
<glyph unicode="&#x201a;" horiz-adv-x="491" d="M152 0v217h188v-178q0 -57 -5 -111.5t-23.5 -98.5t-56.5 -78t-103 -52v96q53 27 71.5 61.5t18.5 96.5v47h-90z" />
<glyph unicode="&#x201c;" horiz-adv-x="833" d="M162 942v178q0 57 5 111.5t23.5 99.5t56.5 79t103 52v-96q-53 -27 -71.5 -61.5t-18.5 -96.5v-49h90v-217h-188zM483 942v178q0 57 5.5 111.5t23.5 99.5t56 79t104 52v-96q-53 -27 -71.5 -61.5t-18.5 -96.5v-49h90v-217h-189z" />
<glyph unicode="&#x201d;" horiz-adv-x="833" d="M162 942v96q53 27 71.5 62t18.5 96v49h-90v217h188v-178q0 -59 -5 -112.5t-23.5 -98.5t-56.5 -78.5t-103 -52.5zM483 942v96q53 27 71.5 62t18.5 96v49h-90v217h189v-178q0 -59 -5 -112.5t-23.5 -98.5t-56.5 -78.5t-104 -52.5z" />
<glyph unicode="&#x201e;" horiz-adv-x="833" d="M162 0v217h188v-178q0 -57 -5 -111.5t-23.5 -98.5t-56.5 -78t-103 -52v96q53 27 71.5 61.5t18.5 96.5v47h-90zM483 0v217h189v-178q0 -57 -5 -111.5t-23.5 -98.5t-56.5 -78t-104 -52v96q53 27 71.5 61.5t18.5 96.5v47h-90z" />
<glyph unicode="&#x2022;" horiz-adv-x="1024" d="M147 731q0 76 29 142.5t78 115.5t115.5 78t142.5 29t142.5 -29t115.5 -78t78 -115.5t29 -142.5t-29 -142.5t-78 -115.5t-115.5 -77.5t-142.5 -28.5t-142.5 28.5t-115.5 77.5t-78 115.5t-29 142.5z" />
<glyph unicode="&#x2026;" horiz-adv-x="2048" d="M248 0v217h188v-217h-188zM930 0v217h188v-217h-188zM1612 0v217h188v-217h-188z" />
<glyph unicode="&#x202f;" horiz-adv-x="381" />
<glyph unicode="&#x2039;" horiz-adv-x="491" d="M100 502v160l291 292v-180l-192 -192l192 -193v-180z" />
<glyph unicode="&#x203a;" horiz-adv-x="491" d="M100 209v180l193 193l-193 192v180l291 -292v-160z" />
<glyph unicode="&#x205f;" horiz-adv-x="477" />
<glyph unicode="&#x20ac;" horiz-adv-x="983" d="M37 801l43 123h90q10 106 39 203.5t83 170t139 115.5t208 43q92 0 165 -26.5t148 -75.5l-65 -146q-55 47 -110.5 77t-129.5 30q-86 0 -139 -35t-84 -91t-44 -126t-20 -139h465l-43 -123h-430l-2 -113h400l-43 -123h-355q2 -72 12.5 -151.5t40 -147t85 -111.5t147.5 -44 q88 0 158.5 36.5t136.5 90.5v-179q-74 -47 -147.5 -66.5t-161.5 -19.5q-135 0 -222.5 49.5t-137.5 132.5t-71.5 189.5t-27.5 220.5h-125l43 123h80l2 113h-127z" />
<glyph unicode="&#x2122;" horiz-adv-x="2027" d="M106 1339v123h674v-123h-266v-721h-135v721h-273zM944 618v844h201l266 -647l260 647h201v-844h-135v697h-4l-285 -697h-80l-285 697h-4v-697h-135z" />
<glyph unicode="&#x25fc;" horiz-adv-x="1095" d="M0 0v1096h1096v-1096h-1096z" />
<glyph unicode="&#xfb01;" horiz-adv-x="948" d="M4 963v135h160v129q0 125 56 188.5t181 63.5h125v-148h-80q-55 0 -82.5 -23.5t-27.5 -80.5v-129h188v-135h-188v-963h-172v963h-160zM653 0v1098h172v-1098h-172zM653 1266v196h172v-196h-172z" />
<glyph unicode="&#xfb02;" horiz-adv-x="948" d="M4 963v135h160v129q0 125 56 188.5t181 63.5h125v-148h-80q-55 0 -82.5 -23.5t-27.5 -80.5v-129h188v-135h-188v-963h-172v963h-160zM653 0v1462h172v-1462h-172z" />
</font>
</defs>
</svg>
